<?xml version='1.0' encoding='utf-8'?>
<svg xmlns="http://www.w3.org/2000/svg" width="231.7mm" height="261.4mm" viewBox="0 0 886381 1000000"><defs><style>.C1 {stroke: #000000; stroke-width: 191; stroke-opacity: 1.000; fill: none; fill-opacity: 1.000;}</style><style>.C2 {stroke: #000000; stroke-width: 956; stroke-opacity: 1.000; fill: none; fill-opacity: 1.000;}</style><style>.C3 {stroke: none; stroke-width: none; stroke-opacity: 1.000; fill: #000000; fill-opacity: 1.000;}</style></defs><rect fill="#ffffff" x="0" y="0" width="886381" height="1000000" fill-opacity="1.0" /><g stroke-linecap="round" stroke-linejoin="round" fill-rule="evenodd"><path d="M 123360 892187 l 665321 0 l -92809 -621439 l -479638 0 l -92875 621439" class="C1" /><path d="M 326376 375841 c 0 7393 -5993 13387 -13387 13387 c -7393 0 -13387 -5993 -13387 -13387 c 0 -7393 5993 -13387 13387 -13387 c 7393 0 13387 5993 13387 13387" class="C1" /><path d="M 612470 375841 c 0 7393 -5993 13387 -13387 13387 c -7393 0 -13387 -5993 -13387 -13387 c 0 -7393 5993 -13387 13387 -13387 c 7393 0 13387 5993 13387 13387" class="C1" /><path d="M 373936 767881 c 0 7393 -5993 13387 -13387 13387 c -7393 0 -13387 -5993 -13387 -13387 c 0 -7393 5993 -13387 13387 -13387 c 7393 0 13387 5993 13387 13387" class="C1" /><path d="M 565043 767881 c 0 7393 -5993 13387 -13387 13387 c -7393 0 -13387 -5993 -13387 -13387 c 0 -7393 5993 -13387 13387 -13387 c 7393 0 13387 5993 13387 13387" class="C1" /><path d="M 345118 605328 c 0 7393 -5993 13387 -13387 13387 c -7393 0 -13387 -5993 -13387 -13387 c 0 -7393 5993 -13387 13387 -13387 c 7393 0 13387 5993 13387 13387" class="C1" /><path d="M 593729 605328 c 0 7393 -5993 13387 -13387 13387 c -7393 0 -13387 -5993 -13387 -13387 c 0 -7393 5993 -13387 13387 -13387 c 7393 0 13387 5993 13387 13387" class="C1" /><path d="M 123360 894577 l 0 67167" class="C2" /><path d="M 788682 894577 l 0 67167" class="C2" /><path d="M 142484 956963 l 627074 0" class="C2" /><path d="M 142484 953776 l 0 6375 -19124 -3187 Z" class="C3" /><path d="M 769558 960151 l 0 -6375 19124 3187 Z" class="C3" /><path d="M 443687 951899 l -2348 0 l 0 -14963 q -848 809 -2224 1618 q -1376 809 -2472 1213 l 0 -2270 q 1970 -926 3444 -2244 q 1474 -1318 2087 -2557 l 1513 0 l 0 19202 Z M 449857 935279 l 0 -2257 l 12380 0 l 0 1826 q -1826 1944 -3620 5166 q -1794 3222 -2772 6627 q -704 2400 -900 5257 l -2413 0 q 39 -2257 887 -5453 q 848 -3196 2433 -6164 q 1585 -2968 3372 -5003 l -9366 0 Z M 472086 951899 l 0 -4579 l -8297 0 l 0 -2152 l 8727 -12393 l 1918 0 l 0 12393 l 2583 0 l 0 2152 l -2583 0 l 0 4579 l -2348 0 m 0 -6731 l 0 -8623 l -5988 8623 l 5988 0 Z" class="C3" /><path d="M 216235 268358 l 0 -41765" class="C2" /><path d="M 695873 268358 l 0 -41765" class="C2" /><path d="M 235359 231374 l 441390 0" class="C2" /><path d="M 235359 228187 l 0 6375 -19124 -3187 Z" class="C3" /><path d="M 676749 234561 l 0 -6375 19124 3187 Z" class="C3" /><path d="M 443720 226146 l -2348 0 l 0 -14963 q -848 809 -2224 1618 q -1376 809 -2472 1213 l 0 -2270 q 1970 -926 3444 -2244 q 1474 -1318 2087 -2557 l 1513 0 l 0 19202 Z M 462074 223889 l 0 2257 l -12641 0 q -26 -848 274 -1631 q 483 -1291 1546 -2544 q 1063 -1252 3072 -2896 q 3118 -2557 4214 -4050 q 1096 -1494 1096 -2824 q 0 -1396 -998 -2355 q -998 -959 -2602 -959 q -1696 0 -2713 1018 q -1018 1018 -1031 2818 l -2413 -248 q 248 -2700 1865 -4116 q 1618 -1415 4344 -1415 q 2752 0 4357 1526 q 1605 1526 1605 3783 q 0 1148 -470 2257 q -470 1109 -1559 2335 q -1089 1226 -3620 3366 q -2113 1774 -2713 2407 q -600 633 -991 1272 l 9379 0 Z M 464592 221137 l 2465 -209 q 274 1800 1272 2707 q 998 907 2407 907 q 1696 0 2870 -1278 q 1174 -1278 1174 -3392 q 0 -2009 -1128 -3170 q -1128 -1161 -2955 -1161 q -1135 0 -2048 515 q -913 515 -1435 1337 l -2205 -287 l 1852 -9823 l 9510 0 l 0 2244 l -7631 0 l -1031 5140 q 1722 -1200 3613 -1200 q 2505 0 4227 1735 q 1722 1735 1722 4461 q 0 2596 -1513 4487 q -1839 2322 -5022 2322 q -2609 0 -4259 -1461 q -1650 -1461 -1885 -3874 Z" class="C3" /><path d="M 120970 894577 l -62916 0" class="C2" /><path d="M 213845 270748 l -155790 0" class="C2" /><path d="M 62835 875454 l 0 -585582" class="C2" /><path d="M 59648 875454 l 6375 0 -3187 19124 Z" class="C3" /><path d="M 66022 289872 l -6375 0 3187 -19124 Z" class="C3" /><path d="M 57601 594997 l 0 2348 l -14963 0 q 809 848 1618 2224 q 809 1376 1213 2472 l -2270 0 q -926 -1970 -2244 -3444 q -1318 -1474 -2557 -2087 l 0 -1513 l 19202 0 Z M 43160 576799 l 183 2335 q -1383 313 -2009 887 q -1004 952 -1004 2348 q 0 1122 626 1970 q 809 1109 2361 1748 q 1552 639 4422 665 q -1291 -848 -1918 -2074 q -626 -1226 -626 -2570 q 0 -2348 1728 -3998 q 1728 -1650 4468 -1650 q 1800 0 3346 776 q 1546 776 2368 2133 q 822 1357 822 3079 q 0 2935 -2159 4788 q -2159 1852 -7116 1852 q -5544 0 -8062 -2048 q -2192 -1787 -2192 -4814 q 0 -2257 1265 -3698 q 1265 -1441 3496 -1728 m 8244 9588 q 1213 0 2322 -515 q 1109 -515 1689 -1441 q 581 -926 581 -1944 q 0 -1487 -1200 -2557 q -1200 -1070 -3261 -1070 q -1983 0 -3124 1057 q -1141 1057 -1141 2661 q 0 1591 1141 2700 q 1141 1109 2994 1109 Z M 52552 574112 l -313 -2348 q 1996 -404 2876 -1376 q 881 -972 881 -2368 q 0 -1657 -1148 -2798 q -1148 -1141 -2844 -1141 q -1618 0 -2668 1057 q -1050 1057 -1050 2687 q 0 665 261 1657 l -2061 -261 q 26 -235 26 -378 q 0 -1500 -783 -2700 q -783 -1200 -2413 -1200 q -1291 0 -2139 874 q -848 874 -848 2257 q 0 1370 861 2283 q 861 913 2583 1174 l -417 2348 q -2361 -430 -3659 -1957 q -1298 -1526 -1298 -3796 q 0 -1565 672 -2883 q 672 -1318 1833 -2015 q 1161 -698 2465 -698 q 1239 0 2257 665 q 1018 665 1618 1970 q 391 -1696 1624 -2635 q 1233 -939 3085 -939 q 2505 0 4246 1826 q 1742 1826 1742 4618 q 0 2518 -1500 4181 q -1500 1663 -3887 1898 Z" class="C3" /><path d="M 360550 770272 l 0 57435" class="C2" /><path d="M 551656 770272 l 0 57435" class="C2" /><path d="M 379674 822926 l 152859 0" class="C2" /><path d="M 379674 819739 l 0 6375 -19124 -3187 Z" class="C3" /><path d="M 532532 826114 l 0 -6375 19124 3187 Z" class="C3" /><path d="M 442354 812689 l 2465 -209 q 274 1800 1272 2707 q 998 907 2407 907 q 1696 0 2870 -1278 q 1174 -1278 1174 -3392 q 0 -2009 -1128 -3170 q -1128 -1161 -2955 -1161 q -1135 0 -2048 515 q -913 515 -1435 1337 l -2205 -287 l 1852 -9823 l 9510 0 l 0 2244 l -7631 0 l -1031 5140 q 1722 -1200 3613 -1200 q 2505 0 4227 1735 q 1722 1735 1722 4461 q 0 2596 -1513 4487 q -1839 2322 -5022 2322 q -2609 0 -4259 -1461 q -1650 -1461 -1885 -3874 Z M 457212 808267 q 0 -3392 698 -5459 q 698 -2068 2074 -3189 q 1376 -1122 3463 -1122 q 1539 0 2700 620 q 1161 620 1918 1787 q 757 1168 1187 2844 q 430 1676 430 4520 q 0 3366 -691 5433 q -691 2068 -2068 3196 q -1376 1128 -3476 1128 q -2766 0 -4344 -1983 q -1892 -2387 -1892 -7775 m 2413 0 q 0 4709 1102 6268 q 1102 1559 2720 1559 q 1618 0 2720 -1565 q 1102 -1565 1102 -6262 q 0 -4722 -1102 -6275 q -1102 -1552 -2746 -1552 q -1618 0 -2583 1370 q -1213 1748 -1213 6457 Z" class="C3" /><path d="M 331731 607719 l 0 63986" class="C2" /><path d="M 580342 607719 l 0 63986" class="C2" /><path d="M 350855 666924 l 210363 0" class="C2" /><path d="M 350855 663736 l 0 6375 -19124 -3187 Z" class="C3" /><path d="M 561218 670111 l 0 -6375 19124 3187 Z" class="C3" /><path d="M 454471 647255 l -2335 183 q -313 -1383 -887 -2009 q -952 -1004 -2348 -1004 q -1122 0 -1970 626 q -1109 809 -1748 2361 q -639 1552 -665 4422 q 848 -1291 2074 -1918 q 1226 -626 2570 -626 q 2348 0 3998 1728 q 1650 1728 1650 4468 q 0 1800 -776 3346 q -776 1546 -2133 2368 q -1357 822 -3079 822 q -2935 0 -4788 -2159 q -1852 -2159 -1852 -7116 q 0 -5544 2048 -8062 q 1787 -2192 4814 -2192 q 2257 0 3698 1265 q 1441 1265 1728 3496 m -9588 8244 q 0 1213 515 2322 q 515 1109 1441 1689 q 926 581 1944 581 q 1487 0 2557 -1200 q 1070 -1200 1070 -3261 q 0 -1983 -1057 -3124 q -1057 -1141 -2661 -1141 q -1591 0 -2700 1141 q -1109 1141 -1109 2994 Z M 457145 656687 l 2465 -209 q 274 1800 1272 2707 q 998 907 2407 907 q 1696 0 2870 -1278 q 1174 -1278 1174 -3392 q 0 -2009 -1128 -3170 q -1128 -1161 -2955 -1161 q -1135 0 -2048 515 q -913 515 -1435 1337 l -2205 -287 l 1852 -9823 l 9510 0 l 0 2244 l -7631 0 l -1031 5140 q 1722 -1200 3613 -1200 q 2505 0 4227 1735 q 1722 1735 1722 4461 q 0 2596 -1513 4487 q -1839 2322 -5022 2322 q -2609 0 -4259 -1461 q -1650 -1461 -1885 -3874 Z" class="C3" /><path d="M 312990 378231 l 0 76311" class="C2" /><path d="M 599084 378231 l 0 76311" class="C2" /><path d="M 332114 449761 l 247846 0" class="C2" /><path d="M 332114 446574 l 0 6375 -19124 -3187 Z" class="C3" /><path d="M 579960 452948 l 0 -6375 19124 3187 Z" class="C3" /><path d="M 442444 427953 l 0 -2257 l 12380 0 l 0 1826 q -1826 1944 -3620 5166 q -1794 3222 -2772 6627 q -704 2400 -900 5257 l -2413 0 q 39 -2257 887 -5453 q 848 -3196 2433 -6164 q 1585 -2968 3372 -5003 l -9366 0 Z M 457145 439563 l 2465 -209 q 274 1800 1272 2707 q 998 907 2407 907 q 1696 0 2870 -1278 q 1174 -1278 1174 -3392 q 0 -2009 -1128 -3170 q -1128 -1161 -2955 -1161 q -1135 0 -2048 515 q -913 515 -1435 1337 l -2205 -287 l 1852 -9823 l 9510 0 l 0 2244 l -7631 0 l -1031 5140 q 1722 -1200 3613 -1200 q 2505 0 4227 1735 q 1722 1735 1722 4461 q 0 2596 -1513 4487 q -1839 2322 -5022 2322 q -2609 0 -4259 -1461 q -1650 -1461 -1885 -3874 Z" class="C3" /><path d="M 791072 892187 l 56910 0" class="C2" /><path d="M 554047 767881 l 293936 0" class="C2" /><path d="M 843201 873063 l 0 -86058" class="C2" /><path d="M 840014 873063 l 6375 0 -3187 19124 Z" class="C3" /><path d="M 846389 787005 l -6375 0 3187 -19124 Z" class="C3" /><path d="M 831197 854911 l -313 -2348 q 1996 -404 2876 -1376 q 881 -972 881 -2368 q 0 -1657 -1148 -2798 q -1148 -1141 -2844 -1141 q -1618 0 -2668 1057 q -1050 1057 -1050 2687 q 0 665 261 1657 l -2061 -261 q 26 -235 26 -378 q 0 -1500 -783 -2700 q -783 -1200 -2413 -1200 q -1291 0 -2139 874 q -848 874 -848 2257 q 0 1370 861 2283 q 861 913 2583 1174 l -417 2348 q -2361 -430 -3659 -1957 q -1298 -1526 -1298 -3796 q 0 -1565 672 -2883 q 672 -1318 1833 -2015 q 1161 -698 2465 -698 q 1239 0 2257 665 q 1018 665 1618 1970 q 391 -1696 1624 -2635 q 1233 -939 3085 -939 q 2505 0 4246 1826 q 1742 1826 1742 4618 q 0 2518 -1500 4181 q -1500 1663 -3887 1898 Z M 833988 827725 l 2257 0 l 0 12641 q -848 26 -1631 -274 q -1291 -483 -2544 -1546 q -1252 -1063 -2896 -3072 q -2557 -3118 -4050 -4214 q -1494 -1096 -2824 -1096 q -1396 0 -2355 998 q -959 998 -959 2602 q 0 1696 1018 2713 q 1018 1018 2818 1031 l -248 2413 q -2700 -248 -4116 -1865 q -1415 -1618 -1415 -4344 q 0 -2752 1526 -4357 q 1526 -1605 3783 -1605 q 1148 0 2257 470 q 1109 470 2335 1559 q 1226 1089 3366 3620 q 1774 2113 2407 2713 q 633 600 1272 991 l 0 -9379 Z M 836245 823942 l -2674 0 l 0 -2674 l 2674 0 q 1474 0 2381 522 q 907 522 1402 1657 l -1004 652 q -326 -744 -959 -1096 q -633 -352 -1820 -391 l 0 1331 Z M 831236 817785 l -209 -2465 q 1800 -274 2707 -1272 q 907 -998 907 -2407 q 0 -1696 -1278 -2870 q -1278 -1174 -3392 -1174 q -2009 0 -3170 1128 q -1161 1128 -1161 2955 q 0 1135 515 2048 q 515 913 1337 1435 l -287 2205 l -9823 -1852 l 0 -9510 l 2244 0 l 0 7631 l 5140 1031 q -1200 -1722 -1200 -3613 q 0 -2505 1735 -4227 q 1735 -1722 4461 -1722 q 2596 0 4487 1513 q 2322 1839 2322 5022 q 0 2609 -1461 4259 q -1461 1650 -3874 1885 Z" class="C3" /><path d="M 554047 767881 l 293936 0" class="C2" /><path d="M 582733 605328 l 265250 0" class="C2" /><path d="M 843201 748757 l 0 -124306" class="C2" /><path d="M 840014 748757 l 6375 0 -3187 19124 Z" class="C3" /><path d="M 846389 624452 l -6375 0 3187 -19124 Z" class="C3" /><path d="M 836245 703968 l -4579 0 l 0 8297 l -2152 0 l -12393 -8727 l 0 -1918 l 12393 0 l 0 -2583 l 2152 0 l 0 2583 l 4579 0 l 0 2348 m -6731 0 l -8623 0 l 8623 5988 l 0 -5988 Z M 833988 684296 l 2257 0 l 0 12641 q -848 26 -1631 -274 q -1291 -483 -2544 -1546 q -1252 -1063 -2896 -3072 q -2557 -3118 -4050 -4214 q -1494 -1096 -2824 -1096 q -1396 0 -2355 998 q -959 998 -959 2602 q 0 1696 1018 2713 q 1018 1018 2818 1031 l -248 2413 q -2700 -248 -4116 -1865 q -1415 -1618 -1415 -4344 q 0 -2752 1526 -4357 q 1526 -1605 3783 -1605 q 1148 0 2257 470 q 1109 470 2335 1559 q 1226 1089 3366 3620 q 1774 2113 2407 2713 q 633 600 1272 991 l 0 -9379 Z M 836245 680513 l -2674 0 l 0 -2674 l 2674 0 q 1474 0 2381 522 q 907 522 1402 1657 l -1004 652 q -326 -744 -959 -1096 q -633 -352 -1820 -391 l 0 1331 Z M 831236 674356 l -209 -2465 q 1800 -274 2707 -1272 q 907 -998 907 -2407 q 0 -1696 -1278 -2870 q -1278 -1174 -3392 -1174 q -2009 0 -3170 1128 q -1161 1128 -1161 2955 q 0 1135 515 2048 q 515 913 1337 1435 l -287 2205 l -9823 -1852 l 0 -9510 l 2244 0 l 0 7631 l 5140 1031 q -1200 -1722 -1200 -3613 q 0 -2505 1735 -4227 q 1735 -1722 4461 -1722 q 2596 0 4487 1513 q 2322 1839 2322 5022 q 0 2609 -1461 4259 q -1461 1650 -3874 1885 Z" class="C3" /><path d="M 582733 605328 l 265250 0" class="C2" /><path d="M 601474 375841 l 246508 0" class="C2" /><path d="M 843201 586204 l 0 -191239" class="C2" /><path d="M 840014 586204 l 6375 0 -3187 19124 Z" class="C3" /><path d="M 846389 394965 l -6375 0 3187 -19124 Z" class="C3" /><path d="M 823533 492150 l 183 2335 q -1383 313 -2009 887 q -1004 952 -1004 2348 q 0 1122 626 1970 q 809 1109 2361 1748 q 1552 639 4422 665 q -1291 -848 -1918 -2074 q -626 -1226 -626 -2570 q 0 -2348 1728 -3998 q 1728 -1650 4468 -1650 q 1800 0 3346 776 q 1546 776 2368 2133 q 822 1357 822 3079 q 0 2935 -2159 4788 q -2159 1852 -7116 1852 q -5544 0 -8062 -2048 q -2192 -1787 -2192 -4814 q 0 -2257 1265 -3698 q 1265 -1441 3496 -1728 m 8244 9588 q 1213 0 2322 -515 q 1109 -515 1689 -1441 q 581 -926 581 -1944 q 0 -1487 -1200 -2557 q -1200 -1070 -3261 -1070 q -1983 0 -3124 1057 q -1141 1057 -1141 2661 q 0 1591 1141 2700 q 1141 1109 2994 1109 Z M 828542 489476 q -3392 0 -5459 -698 q -2068 -698 -3189 -2074 q -1122 -1376 -1122 -3463 q 0 -1539 620 -2700 q 620 -1161 1787 -1918 q 1168 -757 2844 -1187 q 1676 -430 4520 -430 q 3366 0 5433 691 q 2068 691 3196 2068 q 1128 1376 1128 3476 q 0 2766 -1983 4344 q -2387 1892 -7775 1892 m 0 -2413 q 4709 0 6268 -1102 q 1559 -1102 1559 -2720 q 0 -1618 -1565 -2720 q -1565 -1102 -6262 -1102 q -4722 0 -6275 1102 q -1552 1102 -1552 2746 q 0 1618 1370 2583 q 1748 1213 6457 1213 Z" class="C3" /><path d="M 230561 396591 l -5165 -15879 l 12703 -4132 l 5165 15879 l -12703 4132 m 268 -526 l 11909 -3873 l -4906 -15085 l -11909 3873 l 4906 15085 Z M 242503 375231 l -698 -2146 l 11773 -3829 l 565 1737 q -1136 2413 -1845 6032 q -709 3619 -586 7159 q 73 2500 770 5278 l -2295 746 q -661 -2158 -843 -5460 q -182 -3302 407 -6614 q 589 -3312 1659 -5800 l -8907 2897 Z" class="C3" /><path d="M 342920 362754 l 1972 6062 -19172 2884 Z" class="C3" /><path d="M 325720 371700 l -25461 8281" class="C2" /><path d="M 227633 403603 l 54441 -17707" class="C2" /><path d="M 343906 365785 l 18186 -5915" class="C2" /><path d="M 283059 388928 l -1972 -6062 19172 -2884 Z" class="C3" /><path d="M 161175 927181 c 4368 -4720 7813 -10215 10159 -16203" class="C2" /><path d="M 111866 841963 c -6268 1435 -12213 4030 -17526 7652" class="C2" /><path d="M 174882 892187 c 0 -25514 -18673 -47185 -43907 -50956" class="C2" /><path d="M 174465 911570 l -6264 -1183 6681 -18200 Z" class="C3" /><path d="M 111988 845148 l -244 -6370 19232 2452 Z" class="C3" /><path d="M 164105 836648 q -549 -1456 -257 -2637 q 291 -1181 1339 -2083 q 1581 -1362 3638 -1154 q 2056 208 3683 2096 q 1635 1897 1529 4003 q -106 2106 -1687 3468 q -1008 869 -2210 983 q -1202 114 -2535 -614 q 715 1709 347 3240 q -368 1531 -1712 2689 q -1858 1601 -4255 1376 q -2397 -224 -4245 -2369 q -1848 -2144 -1710 -4553 q 137 -2409 2035 -4043 q 1413 -1218 2984 -1323 q 1571 -105 3058 921 m 2708 -2953 q -1028 886 -1109 2110 q -82 1224 829 2282 q 886 1028 2099 1127 q 1214 99 2152 -710 q 978 -843 1062 -2095 q 84 -1252 -785 -2260 q -877 -1018 -2108 -1128 q -1231 -110 -2140 673 m -7184 5192 q -761 656 -1162 1629 q -401 974 -178 2022 q 223 1048 930 1868 q 1098 1275 2634 1398 q 1536 123 2800 -967 q 1285 -1107 1388 -2686 q 103 -1579 -1004 -2863 q -1081 -1255 -2623 -1365 q -1541 -110 -2786 963 Z M 169362 858636 l -1533 -1779 l 11335 -9767 q -1166 -114 -2677 -629 q -1511 -515 -2533 -1081 l 1720 -1482 q 1987 888 3948 1144 q 1960 257 3299 -88 l 988 1146 l -14547 12534 Z M 185651 853280 q 1136 -979 2631 -864 q 1494 116 2465 1242 q 988 1146 877 2637 q -111 1490 -1247 2469 q -1136 979 -2636 868 q -1499 -111 -2479 -1248 q -971 -1127 -864 -2622 q 106 -1495 1253 -2483 m 928 1077 q -692 596 -759 1507 q -68 911 528 1602 q 588 682 1498 750 q 911 68 1602 -528 q 692 -596 759 -1507 q 68 -911 -520 -1593 q -596 -692 -1507 -759 q -911 -68 -1602 528 Z" class="C3" /><path d="M 456054 270748 l 0 36431 m 0 6072 l 0 6072 m 0 6072 l 0 36431 m 0 6072 l 0 6072 m 0 6072 l 0 36431 m 0 6072 l 0 6072 m 0 6072 l 0 36431 m 0 6072 l 0 6072 m 0 6072 l 0 36431 m 0 6072 l 0 6072 m 0 6072 l 0 36431 m 0 6072 l 0 6072 m 0 6072 l 0 36431 m 0 6072 l 0 6072 m 0 6072 l 0 36431 m 0 6072 l 0 6072 m 0 6072 l 0 36431 m 0 6072 l 0 6072 m 0 6072 l 0 36431 m 0 6072 l 0 6072 m 0 6072 l 0 36431 m 0 6072 l 0 6072 m 0 6072 l 0 20326" class="C2" /><path d="M 222391 61204 l -2614 0 l 0 -22949 l 2818 0 l 0 8187 q 1785 -2239 4555 -2239 q 1534 0 2904 618 q 1370 618 2254 1738 q 884 1119 1385 2700 q 501 1581 501 3381 q 0 4274 -2113 6606 q -2113 2332 -5072 2332 q -2943 0 -4618 -2458 l 0 2082 m -31 -8437 q 0 2990 814 4320 q 1331 2176 3600 2176 q 1847 0 3193 -1605 q 1346 -1605 1346 -4782 q 0 -3256 -1291 -4806 q -1291 -1550 -3123 -1550 q -1847 0 -3193 1605 q -1346 1605 -1346 4641 Z M 237560 61204 l 0 -22949 l 2818 0 l 0 22949 l -2818 0 Z M 255593 59154 q -1565 1331 -3013 1878 q -1448 548 -3107 548 q -2739 0 -4211 -1338 q -1471 -1338 -1471 -3420 q 0 -1221 556 -2231 q 556 -1010 1456 -1620 q 900 -611 2027 -924 q 830 -219 2505 -423 q 3413 -407 5025 -971 q 16 -579 16 -736 q 0 -1722 -798 -2426 q -1080 -955 -3209 -955 q -1988 0 -2935 697 q -947 697 -1401 2465 l -2755 -376 q 376 -1769 1237 -2857 q 861 -1088 2489 -1675 q 1628 -587 3773 -587 q 2129 0 3460 501 q 1331 501 1957 1260 q 626 759 877 1918 q 141 720 141 2599 l 0 3757 q 0 3929 180 4970 q 180 1041 712 1996 l -2943 0 q -438 -877 -564 -2051 m -235 -6293 q -1534 626 -4602 1064 q -1738 250 -2458 564 q -720 313 -1111 916 q -391 603 -391 1338 q 0 1127 853 1878 q 853 751 2497 751 q 1628 0 2896 -712 q 1268 -712 1863 -1949 q 454 -955 454 -2818 l 0 -1033 Z M 273423 55115 l 2771 360 q -454 2865 -2325 4485 q -1871 1620 -4594 1620 q -3413 0 -5487 -2231 q -2074 -2231 -2074 -6395 q 0 -2692 892 -4712 q 892 -2019 2716 -3029 q 1824 -1010 3968 -1010 q 2708 0 4430 1370 q 1722 1370 2207 3890 l -2739 423 q -391 -1675 -1385 -2520 q -994 -845 -2403 -845 q -2129 0 -3460 1526 q -1331 1526 -1331 4829 q 0 3350 1284 4868 q 1284 1518 3350 1518 q 1659 0 2771 -1018 q 1111 -1018 1409 -3131 Z M 278605 61204 l 0 -22949 l 2818 0 l 0 8234 q 1972 -2285 4978 -2285 q 1847 0 3209 728 q 1362 728 1949 2012 q 587 1284 587 3726 l 0 10535 l -2818 0 l 0 -10535 q 0 -2113 -916 -3076 q -916 -963 -2591 -963 q -1252 0 -2356 650 q -1104 650 -1573 1761 q -470 1111 -470 3068 l 0 9095 l -2818 0 Z M 307283 59154 q -1565 1331 -3013 1878 q -1448 548 -3107 548 q -2739 0 -4211 -1338 q -1471 -1338 -1471 -3420 q 0 -1221 556 -2231 q 556 -1010 1456 -1620 q 900 -611 2027 -924 q 830 -219 2505 -423 q 3413 -407 5025 -971 q 16 -579 16 -736 q 0 -1722 -798 -2426 q -1080 -955 -3209 -955 q -1988 0 -2935 697 q -947 697 -1401 2465 l -2755 -376 q 376 -1769 1237 -2857 q 861 -1088 2489 -1675 q 1628 -587 3773 -587 q 2129 0 3460 501 q 1331 501 1957 1260 q 626 759 877 1918 q 141 720 141 2599 l 0 3757 q 0 3929 180 4970 q 180 1041 712 1996 l -2943 0 q -438 -877 -564 -2051 m -235 -6293 q -1534 626 -4602 1064 q -1738 250 -2458 564 q -720 313 -1111 916 q -391 603 -391 1338 q 0 1127 853 1878 q 853 751 2497 751 q 1628 0 2896 -712 q 1268 -712 1863 -1949 q 454 -955 454 -2818 l 0 -1033 Z M 322045 56242 l 2786 -438 q 235 1675 1307 2567 q 1072 892 2998 892 q 1941 0 2880 -791 q 939 -791 939 -1855 q 0 -955 -830 -1503 q -579 -376 -2880 -955 q -3099 -783 -4297 -1354 q -1198 -571 -1816 -1581 q -618 -1010 -618 -2231 q 0 -1111 509 -2058 q 509 -947 1385 -1573 q 657 -485 1792 -822 q 1135 -337 2434 -337 q 1957 0 3436 564 q 1479 564 2184 1526 q 704 963 971 2575 l -2755 376 q -188 -1284 -1088 -2004 q -900 -720 -2544 -720 q -1941 0 -2771 642 q -830 642 -830 1503 q 0 548 344 986 q 344 454 1080 751 q 423 157 2489 720 q 2990 798 4172 1307 q 1182 509 1855 1479 q 673 971 673 2411 q 0 1409 -822 2653 q -822 1244 -2372 1925 q -1550 681 -3506 681 q -3240 0 -4939 -1346 q -1698 -1346 -2168 -3992 Z M 345353 58684 l 407 2489 q -1190 250 -2129 250 q -1534 0 -2379 -485 q -845 -485 -1190 -1276 q -344 -791 -344 -3326 l 0 -9565 l -2066 0 l 0 -2192 l 2066 0 l 0 -4117 l 2802 -1691 l 0 5808 l 2833 0 l 0 2192 l -2833 0 l 0 9721 q 0 1205 149 1550 q 149 344 485 548 q 337 204 963 204 q 470 0 1237 -110 Z M 358957 59154 q -1565 1331 -3013 1878 q -1448 548 -3107 548 q -2739 0 -4211 -1338 q -1471 -1338 -1471 -3420 q 0 -1221 556 -2231 q 556 -1010 1456 -1620 q 900 -611 2027 -924 q 830 -219 2505 -423 q 3413 -407 5025 -971 q 16 -579 16 -736 q 0 -1722 -798 -2426 q -1080 -955 -3209 -955 q -1988 0 -2935 697 q -947 697 -1401 2465 l -2755 -376 q 376 -1769 1237 -2857 q 861 -1088 2489 -1675 q 1628 -587 3773 -587 q 2129 0 3460 501 q 1331 501 1957 1260 q 626 759 877 1918 q 141 720 141 2599 l 0 3757 q 0 3929 180 4970 q 180 1041 712 1996 l -2943 0 q -438 -877 -564 -2051 m -235 -6293 q -1534 626 -4602 1064 q -1738 250 -2458 564 q -720 313 -1111 916 q -391 603 -391 1338 q 0 1127 853 1878 q 853 751 2497 751 q 1628 0 2896 -712 q 1268 -712 1863 -1949 q 454 -955 454 -2818 l 0 -1033 Z M 365876 61204 l 0 -22949 l 2818 0 l 0 22949 l -2818 0 Z M 372012 52892 q 0 -4618 2567 -6841 q 2145 -1847 5228 -1847 q 3428 0 5604 2246 q 2176 2246 2176 6207 q 0 3209 -963 5048 q -963 1839 -2802 2857 q -1839 1018 -4015 1018 q -3491 0 -5643 -2239 q -2152 -2239 -2152 -6449 m 2896 0 q 0 3193 1393 4782 q 1393 1589 3506 1589 q 2098 0 3491 -1597 q 1393 -1597 1393 -4868 q 0 -3084 -1401 -4673 q -1401 -1589 -3483 -1589 q -2113 0 -3506 1581 q -1393 1581 -1393 4774 Z M 393959 61204 l -5088 -16625 l 2912 0 l 2646 9596 l 986 3569 q 63 -266 861 -3428 l 2646 -9737 l 2896 0 l 2489 9643 l 830 3178 l 955 -3209 l 2849 -9612 l 2739 0 l -5197 16625 l -2927 0 l -2646 -9956 l -642 -2833 l -3366 12789 l -2943 0 Z M 424891 59154 q -1565 1331 -3013 1878 q -1448 548 -3107 548 q -2739 0 -4211 -1338 q -1471 -1338 -1471 -3420 q 0 -1221 556 -2231 q 556 -1010 1456 -1620 q 900 -611 2027 -924 q 830 -219 2505 -423 q 3413 -407 5025 -971 q 16 -579 16 -736 q 0 -1722 -798 -2426 q -1080 -955 -3209 -955 q -1988 0 -2935 697 q -947 697 -1401 2465 l -2755 -376 q 376 -1769 1237 -2857 q 861 -1088 2489 -1675 q 1628 -587 3773 -587 q 2129 0 3460 501 q 1331 501 1957 1260 q 626 759 877 1918 q 141 720 141 2599 l 0 3757 q 0 3929 180 4970 q 180 1041 712 1996 l -2943 0 q -438 -877 -564 -2051 m -235 -6293 q -1534 626 -4602 1064 q -1738 250 -2458 564 q -720 313 -1111 916 q -391 603 -391 1338 q 0 1127 853 1878 q 853 751 2497 751 q 1628 0 2896 -712 q 1268 -712 1863 -1949 q 454 -955 454 -2818 l 0 -1033 Z M 440780 61204 l 0 -16625 l 2536 0 l 0 2364 q 1832 -2739 5291 -2739 q 1503 0 2763 540 q 1260 540 1886 1417 q 626 877 877 2082 q 157 783 157 2739 l 0 10222 l -2818 0 l 0 -10112 q 0 -1722 -329 -2575 q -329 -853 -1166 -1362 q -837 -509 -1965 -509 q -1800 0 -3107 1143 q -1307 1143 -1307 4336 l 0 9079 l -2818 0 Z M 458625 41496 l 0 -3240 l 2818 0 l 0 3240 l -2818 0 m 0 19708 l 0 -16625 l 2818 0 l 0 16625 l -2818 0 Z M 477113 55851 l 2912 360 q -689 2552 -2552 3960 q -1863 1409 -4759 1409 q -3647 0 -5784 -2246 q -2137 -2246 -2137 -6301 q 0 -4195 2160 -6512 q 2160 -2317 5604 -2317 q 3334 0 5448 2270 q 2113 2270 2113 6387 q 0 250 -16 751 l -12398 0 q 157 2739 1550 4195 q 1393 1456 3475 1456 q 1550 0 2646 -814 q 1096 -814 1738 -2599 m -9251 -4555 l 9283 0 q -188 -2098 -1064 -3146 q -1346 -1628 -3491 -1628 q -1941 0 -3264 1299 q -1323 1299 -1464 3475 Z M 483531 61204 l 0 -16625 l 2536 0 l 0 2520 q 971 -1769 1792 -2332 q 822 -564 1808 -564 q 1425 0 2896 908 l -971 2614 q -1033 -611 -2066 -611 q -924 0 -1659 556 q -736 556 -1049 1542 q -470 1503 -470 3287 l 0 8704 l -2818 0 Z M 505024 61204 l 0 -2098 q -1581 2473 -4649 2473 q -1988 0 -3655 -1096 q -1667 -1096 -2583 -3060 q -916 -1965 -916 -4516 q 0 -2489 830 -4516 q 830 -2027 2489 -3107 q 1659 -1080 3710 -1080 q 1503 0 2677 634 q 1174 634 1910 1651 l 0 -8234 l 2802 0 l 0 22949 l -2614 0 m -8907 -8297 q 0 3193 1346 4774 q 1346 1581 3178 1581 q 1847 0 3139 -1511 q 1291 -1511 1291 -4610 q 0 -3413 -1315 -5009 q -1315 -1597 -3240 -1597 q -1878 0 -3139 1534 q -1260 1534 -1260 4837 Z M 510581 61204 l 0 -2285 l 10582 -12147 q -1800 94 -3178 94 l -6778 0 l 0 -2285 l 13588 0 l 0 1863 l -9001 10551 l -1738 1925 q 1894 -141 3553 -141 l 7686 0 l 0 2426 l -14715 0 Z M 539478 55851 l 2912 360 q -689 2552 -2552 3960 q -1863 1409 -4759 1409 q -3647 0 -5784 -2246 q -2137 -2246 -2137 -6301 q 0 -4195 2160 -6512 q 2160 -2317 5604 -2317 q 3334 0 5448 2270 q 2113 2270 2113 6387 q 0 250 -16 751 l -12398 0 q 157 2739 1550 4195 q 1393 1456 3475 1456 q 1550 0 2646 -814 q 1096 -814 1738 -2599 m -9251 -4555 l 9283 0 q -188 -2098 -1064 -3146 q -1346 -1628 -3491 -1628 q -1941 0 -3264 1299 q -1323 1299 -1464 3475 Z M 548996 61204 l -5088 -16625 l 2912 0 l 2646 9596 l 986 3569 q 63 -266 861 -3428 l 2646 -9737 l 2896 0 l 2489 9643 l 830 3178 l 955 -3209 l 2849 -9612 l 2739 0 l -5197 16625 l -2927 0 l -2646 -9956 l -642 -2833 l -3366 12789 l -2943 0 Z M 569080 61204 l 0 -16625 l 2536 0 l 0 2364 q 1832 -2739 5291 -2739 q 1503 0 2763 540 q 1260 540 1886 1417 q 626 877 877 2082 q 157 783 157 2739 l 0 10222 l -2818 0 l 0 -10112 q 0 -1722 -329 -2575 q -329 -853 -1166 -1362 q -837 -509 -1965 -509 q -1800 0 -3107 1143 q -1307 1143 -1307 4336 l 0 9079 l -2818 0 Z M 597758 59154 q -1565 1331 -3013 1878 q -1448 548 -3107 548 q -2739 0 -4211 -1338 q -1471 -1338 -1471 -3420 q 0 -1221 556 -2231 q 556 -1010 1456 -1620 q 900 -611 2027 -924 q 830 -219 2505 -423 q 3413 -407 5025 -971 q 16 -579 16 -736 q 0 -1722 -798 -2426 q -1080 -955 -3209 -955 q -1988 0 -2935 697 q -947 697 -1401 2465 l -2755 -376 q 376 -1769 1237 -2857 q 861 -1088 2489 -1675 q 1628 -587 3773 -587 q 2129 0 3460 501 q 1331 501 1957 1260 q 626 759 877 1918 q 141 720 141 2599 l 0 3757 q 0 3929 180 4970 q 180 1041 712 1996 l -2943 0 q -438 -877 -564 -2051 m -235 -6293 q -1534 626 -4602 1064 q -1738 250 -2458 564 q -720 313 -1111 916 q -391 603 -391 1338 q 0 1127 853 1878 q 853 751 2497 751 q 1628 0 2896 -712 q 1268 -712 1863 -1949 q 454 -955 454 -2818 l 0 -1033 Z" class="C3" /><path d="M 219276 100830 l 2739 407 q 172 1268 955 1847 q 1049 783 2865 783 q 1957 0 3021 -783 q 1064 -783 1440 -2192 q 219 -861 204 -3616 q -1847 2176 -4602 2176 q -3428 0 -5307 -2473 q -1878 -2473 -1878 -5933 q 0 -2379 861 -4391 q 861 -2012 2497 -3107 q 1636 -1096 3843 -1096 q 2943 0 4853 2379 l 0 -2004 l 2599 0 l 0 14370 q 0 3882 -791 5502 q -791 1620 -2505 2559 q -1714 939 -4219 939 q -2974 0 -4806 -1338 q -1832 -1338 -1769 -4031 m 2332 -9987 q 0 3272 1299 4774 q 1299 1503 3256 1503 q 1941 0 3256 -1495 q 1315 -1495 1315 -4688 q 0 -3053 -1354 -4602 q -1354 -1550 -3264 -1550 q -1878 0 -3193 1526 q -1315 1526 -1315 4532 Z M 237591 99452 l 0 -16625 l 2536 0 l 0 2520 q 971 -1769 1792 -2332 q 822 -564 1808 -564 q 1425 0 2896 908 l -971 2614 q -1033 -611 -2066 -611 q -924 0 -1659 556 q -736 556 -1049 1542 q -470 1503 -470 3287 l 0 8704 l -2818 0 Z M 259194 99452 l 0 -2442 q -1941 2818 -5275 2818 q -1471 0 -2747 -564 q -1276 -564 -1894 -1417 q -618 -853 -869 -2090 q -172 -830 -172 -2630 l 0 -10300 l 2818 0 l 0 9220 q 0 2207 172 2974 q 266 1111 1127 1745 q 861 634 2129 634 q 1268 0 2379 -650 q 1111 -650 1573 -1769 q 462 -1119 462 -3248 l 0 -8907 l 2818 0 l 0 16625 l -2520 0 Z M 268727 99452 l -2614 0 l 0 -22949 l 2818 0 l 0 8187 q 1785 -2239 4555 -2239 q 1534 0 2904 618 q 1370 618 2254 1738 q 884 1119 1385 2700 q 501 1581 501 3381 q 0 4274 -2113 6606 q -2113 2332 -5072 2332 q -2943 0 -4618 -2458 l 0 2082 m -31 -8437 q 0 2990 814 4320 q 1331 2176 3600 2176 q 1847 0 3193 -1605 q 1346 -1605 1346 -4782 q 0 -3256 -1291 -4806 q -1291 -1550 -3123 -1550 q -1847 0 -3193 1605 q -1346 1605 -1346 4641 Z M 282910 91140 q 0 -4618 2567 -6841 q 2145 -1847 5228 -1847 q 3428 0 5604 2246 q 2176 2246 2176 6207 q 0 3209 -963 5048 q -963 1839 -2802 2857 q -1839 1018 -4015 1018 q -3491 0 -5643 -2239 q -2152 -2239 -2152 -6449 m 2896 0 q 0 3193 1393 4782 q 1393 1589 3506 1589 q 2098 0 3491 -1597 q 1393 -1597 1393 -4868 q 0 -3084 -1401 -4673 q -1401 -1589 -3483 -1589 q -2113 0 -3506 1581 q -1393 1581 -1393 4774 Z M 300661 94490 l 2786 -438 q 235 1675 1307 2567 q 1072 892 2998 892 q 1941 0 2880 -791 q 939 -791 939 -1855 q 0 -955 -830 -1503 q -579 -376 -2880 -955 q -3099 -783 -4297 -1354 q -1198 -571 -1816 -1581 q -618 -1010 -618 -2231 q 0 -1111 509 -2058 q 509 -947 1385 -1573 q 657 -485 1792 -822 q 1135 -337 2434 -337 q 1957 0 3436 564 q 1479 564 2184 1526 q 704 963 971 2575 l -2755 376 q -188 -1284 -1088 -2004 q -900 -720 -2544 -720 q -1941 0 -2771 642 q -830 642 -830 1503 q 0 548 344 986 q 344 454 1080 751 q 423 157 2489 720 q 2990 798 4172 1307 q 1182 509 1855 1479 q 673 971 673 2411 q 0 1409 -822 2653 q -822 1244 -2372 1925 q -1550 681 -3506 681 q -3240 0 -4939 -1346 q -1698 -1346 -2168 -3992 m 5181 -13729 l 2082 -4383 l 3694 0 l -3444 4383 l -2332 0 Z M 328666 93363 l 2771 360 q -454 2865 -2325 4485 q -1871 1620 -4594 1620 q -3413 0 -5487 -2231 q -2074 -2231 -2074 -6395 q 0 -2692 892 -4712 q 892 -2019 2716 -3029 q 1824 -1010 3968 -1010 q 2708 0 4430 1370 q 1722 1370 2207 3890 l -2739 423 q -391 -1675 -1385 -2520 q -994 -845 -2403 -845 q -2129 0 -3460 1526 q -1331 1526 -1331 4829 q 0 3350 1284 4868 q 1284 1518 3350 1518 q 1659 0 2771 -1018 q 1111 -1018 1409 -3131 m -6324 -12601 l 2082 -4383 l 3694 0 l -3444 4383 l -2332 0 Z M 341988 93394 l 2818 -376 q 485 2395 1651 3452 q 1166 1057 2841 1057 q 1988 0 3358 -1378 q 1370 -1378 1370 -3413 q 0 -1941 -1268 -3201 q -1268 -1260 -3225 -1260 q -798 0 -1988 313 l 313 -2473 q 282 31 454 31 q 1800 0 3240 -939 q 1440 -939 1440 -2896 q 0 -1550 -1049 -2567 q -1049 -1018 -2708 -1018 q -1644 0 -2739 1033 q -1096 1033 -1409 3099 l -2818 -501 q 517 -2833 2348 -4391 q 1832 -1558 4555 -1558 q 1878 0 3460 806 q 1581 806 2419 2199 q 837 1393 837 2959 q 0 1487 -798 2708 q -798 1221 -2364 1941 q 2035 470 3162 1949 q 1127 1479 1127 3702 q 0 3006 -2192 5095 q -2192 2090 -5542 2090 q -3021 0 -5017 -1800 q -1996 -1800 -2278 -4665 Z M 360585 99452 l 0 -16625 l 2520 0 l 0 2332 q 783 -1221 2082 -1965 q 1299 -744 2959 -744 q 1847 0 3029 767 q 1182 767 1667 2145 q 1972 -2912 5135 -2912 q 2473 0 3804 1370 q 1331 1370 1331 4219 l 0 11412 l -2802 0 l 0 -10473 q 0 -1691 -274 -2434 q -274 -744 -994 -1198 q -720 -454 -1691 -454 q -1753 0 -2912 1166 q -1158 1166 -1158 3733 l 0 9658 l -2818 0 l 0 -10801 q 0 -1878 -689 -2818 q -689 -939 -2254 -939 q -1190 0 -2199 626 q -1010 626 -1464 1832 q -454 1205 -454 3475 l 0 8625 l -2818 0 Z M 387290 99452 l 0 -16625 l 2520 0 l 0 2332 q 783 -1221 2082 -1965 q 1299 -744 2959 -744 q 1847 0 3029 767 q 1182 767 1667 2145 q 1972 -2912 5135 -2912 q 2473 0 3804 1370 q 1331 1370 1331 4219 l 0 11412 l -2802 0 l 0 -10473 q 0 -1691 -274 -2434 q -274 -744 -994 -1198 q -720 -454 -1691 -454 q -1753 0 -2912 1166 q -1158 1166 -1158 3733 l 0 9658 l -2818 0 l 0 -10801 q 0 -1878 -689 -2818 q -689 -939 -2254 -939 q -1190 0 -2199 626 q -1010 626 -1464 1832 q -454 1205 -454 3475 l 0 8625 l -2818 0 Z" class="C3" /><path d="M 219793 137700 l 0 -16625 l 2536 0 l 0 2364 q 1832 -2739 5291 -2739 q 1503 0 2763 540 q 1260 540 1886 1417 q 626 877 877 2082 q 157 783 157 2739 l 0 10222 l -2818 0 l 0 -10112 q 0 -1722 -329 -2575 q -329 -853 -1166 -1362 q -837 -509 -1965 -509 q -1800 0 -3107 1143 q -1307 1143 -1307 4336 l 0 9079 l -2818 0 Z M 248471 135649 q -1565 1331 -3013 1878 q -1448 548 -3107 548 q -2739 0 -4211 -1338 q -1471 -1338 -1471 -3420 q 0 -1221 556 -2231 q 556 -1010 1456 -1620 q 900 -611 2027 -924 q 830 -219 2505 -423 q 3413 -407 5025 -971 q 16 -579 16 -736 q 0 -1722 -798 -2426 q -1080 -955 -3209 -955 q -1988 0 -2935 697 q -947 697 -1401 2465 l -2755 -376 q 376 -1769 1237 -2857 q 861 -1088 2489 -1675 q 1628 -587 3773 -587 q 2129 0 3460 501 q 1331 501 1957 1260 q 626 759 877 1918 q 141 720 141 2599 l 0 3757 q 0 3929 180 4970 q 180 1041 712 1996 l -2943 0 q -438 -877 -564 -2051 m -235 -6293 q -1534 626 -4602 1064 q -1738 250 -2458 564 q -720 313 -1111 916 q -391 603 -391 1338 q 0 1127 853 1878 q 853 751 2497 751 q 1628 0 2896 -712 q 1268 -712 1863 -1949 q 454 -955 454 -2818 l 0 -1033 Z M 255421 137700 l 0 -16625 l 2536 0 l 0 2520 q 971 -1769 1792 -2332 q 822 -564 1808 -564 q 1425 0 2896 908 l -971 2614 q -1033 -611 -2066 -611 q -924 0 -1659 556 q -736 556 -1049 1542 q -470 1503 -470 3287 l 0 8704 l -2818 0 Z M 265080 129388 q 0 -4618 2567 -6841 q 2145 -1847 5228 -1847 q 3428 0 5604 2246 q 2176 2246 2176 6207 q 0 3209 -963 5048 q -963 1839 -2802 2857 q -1839 1018 -4015 1018 q -3491 0 -5643 -2239 q -2152 -2239 -2152 -6449 m 2896 0 q 0 3193 1393 4782 q 1393 1589 3506 1589 q 2098 0 3491 -1597 q 1393 -1597 1393 -4868 q 0 -3084 -1401 -4673 q -1401 -1589 -3483 -1589 q -2113 0 -3506 1581 q -1393 1581 -1393 4774 Z M 282471 137700 l 0 -2285 l 10582 -12147 q -1800 94 -3178 94 l -6778 0 l 0 -2285 l 13588 0 l 0 1863 l -9001 10551 l -1738 1925 q 1894 -141 3553 -141 l 7686 0 l 0 2426 l -14715 0 m 5604 -18691 l 0 -3506 l 3491 0 l 0 3506 l -3491 0 Z M 299988 137700 l 0 -16625 l 2536 0 l 0 2364 q 1832 -2739 5291 -2739 q 1503 0 2763 540 q 1260 540 1886 1417 q 626 877 877 2082 q 157 783 157 2739 l 0 10222 l -2818 0 l 0 -10112 q 0 -1722 -329 -2575 q -329 -853 -1166 -1362 q -837 -509 -1965 -509 q -1800 0 -3107 1143 q -1307 1143 -1307 4336 l 0 9079 l -2818 0 Z M 317834 117992 l 0 -3240 l 2818 0 l 0 3240 l -2818 0 m 0 19708 l 0 -16625 l 2818 0 l 0 16625 l -2818 0 Z M 324956 137700 l 0 -22949 l 2818 0 l 0 13087 l 6669 -6763 l 3647 0 l -6356 6168 l 6997 10457 l -3475 0 l -5495 -8500 l -1988 1910 l 0 6590 l -2818 0 Z M 340986 117992 l 0 -3240 l 2818 0 l 0 3240 l -2818 0 m 0 19708 l 0 -16625 l 2818 0 l 0 16625 l -2818 0 Z M 357000 137700 l 0 -16625 l 2520 0 l 0 2332 q 783 -1221 2082 -1965 q 1299 -744 2959 -744 q 1847 0 3029 767 q 1182 767 1667 2145 q 1972 -2912 5135 -2912 q 2473 0 3804 1370 q 1331 1370 1331 4219 l 0 11412 l -2802 0 l 0 -10473 q 0 -1691 -274 -2434 q -274 -744 -994 -1198 q -720 -454 -1691 -454 q -1753 0 -2912 1166 q -1158 1166 -1158 3733 l 0 9658 l -2818 0 l 0 -10801 q 0 -1878 -689 -2818 q -689 -939 -2254 -939 q -1190 0 -2199 626 q -1010 626 -1464 1832 q -454 1205 -454 3475 l 0 8625 l -2818 0 Z M 382657 129388 q 0 -4618 2567 -6841 q 2145 -1847 5228 -1847 q 3428 0 5604 2246 q 2176 2246 2176 6207 q 0 3209 -963 5048 q -963 1839 -2802 2857 q -1839 1018 -4015 1018 q -3491 0 -5643 -2239 q -2152 -2239 -2152 -6449 m 2896 0 q 0 3193 1393 4782 q 1393 1589 3506 1589 q 2098 0 3491 -1597 q 1393 -1597 1393 -4868 q 0 -3084 -1401 -4673 q -1401 -1589 -3483 -1589 q -2113 0 -3506 1581 q -1393 1581 -1393 4774 Z M 400048 137700 l 0 -2285 l 10582 -12147 q -1800 94 -3178 94 l -6778 0 l 0 -2285 l 13588 0 l 0 1863 l -9001 10551 l -1738 1925 q 1894 -141 3553 -141 l 7686 0 l 0 2426 l -14715 0 m 5604 -18691 l 0 -3506 l 3491 0 l 0 3506 l -3491 0 Z M 417565 137700 l 0 -16625 l 2536 0 l 0 2364 q 1832 -2739 5291 -2739 q 1503 0 2763 540 q 1260 540 1886 1417 q 626 877 877 2082 q 157 783 157 2739 l 0 10222 l -2818 0 l 0 -10112 q 0 -1722 -329 -2575 q -329 -853 -1166 -1362 q -837 -509 -1965 -509 q -1800 0 -3107 1143 q -1307 1143 -1307 4336 l 0 9079 l -2818 0 Z M 446243 135649 q -1565 1331 -3013 1878 q -1448 548 -3107 548 q -2739 0 -4211 -1338 q -1471 -1338 -1471 -3420 q 0 -1221 556 -2231 q 556 -1010 1456 -1620 q 900 -611 2027 -924 q 830 -219 2505 -423 q 3413 -407 5025 -971 q 16 -579 16 -736 q 0 -1722 -798 -2426 q -1080 -955 -3209 -955 q -1988 0 -2935 697 q -947 697 -1401 2465 l -2755 -376 q 376 -1769 1237 -2857 q 861 -1088 2489 -1675 q 1628 -587 3773 -587 q 2129 0 3460 501 q 1331 501 1957 1260 q 626 759 877 1918 q 141 720 141 2599 l 0 3757 q 0 3929 180 4970 q 180 1041 712 1996 l -2943 0 q -438 -877 -564 -2051 m -235 -6293 q -1534 626 -4602 1064 q -1738 250 -2458 564 q -720 313 -1111 916 q -391 603 -391 1338 q 0 1127 853 1878 q 853 751 2497 751 q 1628 0 2896 -712 q 1268 -712 1863 -1949 q 454 -955 454 -2818 l 0 -1033 Z M 460645 137700 l 0 -2285 l 10582 -12147 q -1800 94 -3178 94 l -6778 0 l 0 -2285 l 13588 0 l 0 1863 l -9001 10551 l -1738 1925 q 1894 -141 3553 -141 l 7686 0 l 0 2426 l -14715 0 Z M 489010 135649 q -1565 1331 -3013 1878 q -1448 548 -3107 548 q -2739 0 -4211 -1338 q -1471 -1338 -1471 -3420 q 0 -1221 556 -2231 q 556 -1010 1456 -1620 q 900 -611 2027 -924 q 830 -219 2505 -423 q 3413 -407 5025 -971 q 16 -579 16 -736 q 0 -1722 -798 -2426 q -1080 -955 -3209 -955 q -1988 0 -2935 697 q -947 697 -1401 2465 l -2755 -376 q 376 -1769 1237 -2857 q 861 -1088 2489 -1675 q 1628 -587 3773 -587 q 2129 0 3460 501 q 1331 501 1957 1260 q 626 759 877 1918 q 141 720 141 2599 l 0 3757 q 0 3929 180 4970 q 180 1041 712 1996 l -2943 0 q -438 -877 -564 -2051 m -235 -6293 q -1534 626 -4602 1064 q -1738 250 -2458 564 q -720 313 -1111 916 q -391 603 -391 1338 q 0 1127 853 1878 q 853 751 2497 751 q 1628 0 2896 -712 q 1268 -712 1863 -1949 q 454 -955 454 -2818 l 0 -1033 Z M 494943 129388 q 0 -4618 2567 -6841 q 2145 -1847 5228 -1847 q 3428 0 5604 2246 q 2176 2246 2176 6207 q 0 3209 -963 5048 q -963 1839 -2802 2857 q -1839 1018 -4015 1018 q -3491 0 -5643 -2239 q -2152 -2239 -2152 -6449 m 2896 0 q 0 3193 1393 4782 q 1393 1589 3506 1589 q 2098 0 3491 -1597 q 1393 -1597 1393 -4868 q 0 -3084 -1401 -4673 q -1401 -1589 -3483 -1589 q -2113 0 -3506 1581 q -1393 1581 -1393 4774 Z M 513837 137700 l 0 -22949 l 2818 0 l 0 13087 l 6669 -6763 l 3647 0 l -6356 6168 l 6997 10457 l -3475 0 l -5495 -8500 l -1988 1910 l 0 6590 l -2818 0 Z M 529820 137700 l 0 -16625 l 2536 0 l 0 2520 q 971 -1769 1792 -2332 q 822 -564 1808 -564 q 1425 0 2896 908 l -971 2614 q -1033 -611 -2066 -611 q -924 0 -1659 556 q -736 556 -1049 1542 q -470 1503 -470 3287 l 0 8704 l -2818 0 Z M 551375 135649 q -1565 1331 -3013 1878 q -1448 548 -3107 548 q -2739 0 -4211 -1338 q -1471 -1338 -1471 -3420 q 0 -1221 556 -2231 q 556 -1010 1456 -1620 q 900 -611 2027 -924 q 830 -219 2505 -423 q 3413 -407 5025 -971 q 16 -579 16 -736 q 0 -1722 -798 -2426 q -1080 -955 -3209 -955 q -1988 0 -2935 697 q -947 697 -1401 2465 l -2755 -376 q 376 -1769 1237 -2857 q 861 -1088 2489 -1675 q 1628 -587 3773 -587 q 2129 0 3460 501 q 1331 501 1957 1260 q 626 759 877 1918 q 141 720 141 2599 l 0 3757 q 0 3929 180 4970 q 180 1041 712 1996 l -2943 0 q -438 -877 -564 -2051 m -235 -6293 q -1534 626 -4602 1064 q -1738 250 -2458 564 q -720 313 -1111 916 q -391 603 -391 1338 q 0 1127 853 1878 q 853 751 2497 751 q 1628 0 2896 -712 q 1268 -712 1863 -1949 q 454 -955 454 -2818 l 0 -1033 m 3162 8344 q -892 548 -1385 1354 q -493 806 -493 1636 q 0 657 360 1111 q 360 454 1174 454 q 360 0 736 -102 q 376 -102 689 -274 l 0 2004 q -1143 548 -2129 548 q -798 0 -1393 -227 q -595 -227 -994 -626 q -399 -399 -595 -916 q -196 -517 -196 -1111 q 0 -1002 564 -2012 q 564 -1010 1597 -1839 l 2066 0 Z M 557840 139078 l 2739 407 q 172 1268 955 1847 q 1049 783 2865 783 q 1957 0 3021 -783 q 1064 -783 1440 -2192 q 219 -861 204 -3616 q -1847 2176 -4602 2176 q -3428 0 -5307 -2473 q -1878 -2473 -1878 -5933 q 0 -2379 861 -4391 q 861 -2012 2497 -3107 q 1636 -1096 3843 -1096 q 2943 0 4853 2379 l 0 -2004 l 2599 0 l 0 14370 q 0 3882 -791 5502 q -791 1620 -2505 2559 q -1714 939 -4219 939 q -2974 0 -4806 -1338 q -1832 -1338 -1769 -4031 m 2332 -9987 q 0 3272 1299 4774 q 1299 1503 3256 1503 q 1941 0 3256 -1495 q 1315 -1495 1315 -4688 q 0 -3053 -1354 -4602 q -1354 -1550 -3264 -1550 q -1878 0 -3193 1526 q -1315 1526 -1315 4532 Z M 576124 137700 l 0 -22949 l 2818 0 l 0 22949 l -2818 0 Z M 583325 117992 l 0 -3240 l 2818 0 l 0 3240 l -2818 0 m 0 19708 l 0 -16625 l 2818 0 l 0 16625 l -2818 0 Z M 601280 131611 l 2771 360 q -454 2865 -2325 4485 q -1871 1620 -4594 1620 q -3413 0 -5487 -2231 q -2074 -2231 -2074 -6395 q 0 -2692 892 -4712 q 892 -2019 2716 -3029 q 1824 -1010 3968 -1010 q 2708 0 4430 1370 q 1722 1370 2207 3890 l -2739 423 q -391 -1675 -1385 -2520 q -994 -845 -2403 -845 q -2129 0 -3460 1526 q -1331 1526 -1331 4829 q 0 3350 1284 4868 q 1284 1518 3350 1518 q 1659 0 2771 -1018 q 1111 -1018 1409 -3131 m -6324 -12601 l 2082 -4383 l 3694 0 l -3444 4383 l -2332 0 Z M 607197 137700 l 0 -3209 l 3209 0 l 0 3209 q 0 1769 -626 2857 q -626 1088 -1988 1683 l -783 -1205 q 892 -391 1315 -1151 q 423 -759 470 -2184 l -1597 0 Z M 622788 137700 l 0 -2285 l 10582 -12147 q -1800 94 -3178 94 l -6778 0 l 0 -2285 l 13588 0 l 0 1863 l -9001 10551 l -1738 1925 q 1894 -141 3553 -141 l 7686 0 l 0 2426 l -14715 0 m 5604 -18691 l 0 -3506 l 3491 0 l 0 3506 l -3491 0 Z M 651686 132346 l 2912 360 q -689 2552 -2552 3960 q -1863 1409 -4759 1409 q -3647 0 -5784 -2246 q -2137 -2246 -2137 -6301 q 0 -4195 2160 -6512 q 2160 -2317 5604 -2317 q 3334 0 5448 2270 q 2113 2270 2113 6387 q 0 250 -16 751 l -12398 0 q 157 2739 1550 4195 q 1393 1456 3475 1456 q 1550 0 2646 -814 q 1096 -814 1738 -2599 m -9251 -4555 l 9283 0 q -188 -2098 -1064 -3146 q -1346 -1628 -3491 -1628 q -1941 0 -3264 1299 q -1323 1299 -1464 3475 Z M 660734 137700 l -2614 0 l 0 -22949 l 2818 0 l 0 8187 q 1785 -2239 4555 -2239 q 1534 0 2904 618 q 1370 618 2254 1738 q 884 1119 1385 2700 q 501 1581 501 3381 q 0 4274 -2113 6606 q -2113 2332 -5072 2332 q -2943 0 -4618 -2458 l 0 2082 m -31 -8437 q 0 2990 814 4320 q 1331 2176 3600 2176 q 1847 0 3193 -1605 q 1346 -1605 1346 -4782 q 0 -3256 -1291 -4806 q -1291 -1550 -3123 -1550 q -1847 0 -3193 1605 q -1346 1605 -1346 4641 Z M 675840 144102 l -313 -2646 q 924 250 1612 250 q 939 0 1503 -313 q 564 -313 924 -877 q 266 -423 861 -2098 q 78 -235 250 -689 l -6309 -16656 l 3037 0 l 3460 9627 q 673 1832 1205 3851 q 485 -1941 1158 -3788 l 3553 -9690 l 2818 0 l -6324 16906 q -1018 2739 -1581 3773 q -751 1393 -1722 2043 q -971 650 -2317 650 q -814 0 -1816 -344 Z M 700902 137700 l 0 -16625 l 2536 0 l 0 2364 q 1832 -2739 5291 -2739 q 1503 0 2763 540 q 1260 540 1886 1417 q 626 877 877 2082 q 157 783 157 2739 l 0 10222 l -2818 0 l 0 -10112 q 0 -1722 -329 -2575 q -329 -853 -1166 -1362 q -837 -509 -1965 -509 q -1800 0 -3107 1143 q -1307 1143 -1307 4336 l 0 9079 l -2818 0 Z M 718747 117992 l 0 -3240 l 2818 0 l 0 3240 l -2818 0 m 0 19708 l 0 -16625 l 2818 0 l 0 16625 l -2818 0 Z M 737235 132346 l 2912 360 q -689 2552 -2552 3960 q -1863 1409 -4759 1409 q -3647 0 -5784 -2246 q -2137 -2246 -2137 -6301 q 0 -4195 2160 -6512 q 2160 -2317 5604 -2317 q 3334 0 5448 2270 q 2113 2270 2113 6387 q 0 250 -16 751 l -12398 0 q 157 2739 1550 4195 q 1393 1456 3475 1456 q 1550 0 2646 -814 q 1096 -814 1738 -2599 m -9251 -4555 l 9283 0 q -188 -2098 -1064 -3146 q -1346 -1628 -3491 -1628 q -1941 0 -3264 1299 q -1323 1299 -1464 3475 Z" class="C3" /><path d="M 222391 175948 l -2614 0 l 0 -22949 l 2818 0 l 0 8187 q 1785 -2239 4555 -2239 q 1534 0 2904 618 q 1370 618 2254 1738 q 884 1119 1385 2700 q 501 1581 501 3381 q 0 4274 -2113 6606 q -2113 2332 -5072 2332 q -2943 0 -4618 -2458 l 0 2082 m -31 -8437 q 0 2990 814 4320 q 1331 2176 3600 2176 q 1847 0 3193 -1605 q 1346 -1605 1346 -4782 q 0 -3256 -1291 -4806 q -1291 -1550 -3123 -1550 q -1847 0 -3193 1605 q -1346 1605 -1346 4641 Z M 237497 182350 l -313 -2646 q 924 250 1612 250 q 939 0 1503 -313 q 564 -313 924 -877 q 266 -423 861 -2098 q 78 -235 250 -689 l -6309 -16656 l 3037 0 l 3460 9627 q 673 1832 1205 3851 q 485 -1941 1158 -3788 l 3553 -9690 l 2818 0 l -6324 16906 q -1018 2739 -1581 3773 q -751 1393 -1722 2043 q -971 650 -2317 650 q -814 0 -1816 -344 Z M 253621 166962 l -2035 1722 l 0 -2473 l 2035 -1722 l 0 -11490 l 2802 0 l 0 9111 l 2113 -1800 l 0 2458 l -2113 1800 l 0 11380 l -2802 0 l 0 -8985 Z M 260650 182350 l -313 -2646 q 924 250 1612 250 q 939 0 1503 -313 q 564 -313 924 -877 q 266 -423 861 -2098 q 78 -235 250 -689 l -6309 -16656 l 3037 0 l 3460 9627 q 673 1832 1205 3851 q 485 -1941 1158 -3788 l 3553 -9690 l 2818 0 l -6324 16906 q -1018 2739 -1581 3773 q -751 1393 -1722 2043 q -971 650 -2317 650 q -814 0 -1816 -344 Z M 284663 167636 q 0 -4618 2567 -6841 q 2145 -1847 5228 -1847 q 3428 0 5604 2246 q 2176 2246 2176 6207 q 0 3209 -963 5048 q -963 1839 -2802 2857 q -1839 1018 -4015 1018 q -3491 0 -5643 -2239 q -2152 -2239 -2152 -6449 m 2896 0 q 0 3193 1393 4782 q 1393 1589 3506 1589 q 2098 0 3491 -1597 q 1393 -1597 1393 -4868 q 0 -3084 -1401 -4673 q -1401 -1589 -3483 -1589 q -2113 0 -3506 1581 q -1393 1581 -1393 4774 Z M 302414 170986 l 2786 -438 q 235 1675 1307 2567 q 1072 892 2998 892 q 1941 0 2880 -791 q 939 -791 939 -1855 q 0 -955 -830 -1503 q -579 -376 -2880 -955 q -3099 -783 -4297 -1354 q -1198 -571 -1816 -1581 q -618 -1010 -618 -2231 q 0 -1111 509 -2058 q 509 -947 1385 -1573 q 657 -485 1792 -822 q 1135 -337 2434 -337 q 1957 0 3436 564 q 1479 564 2184 1526 q 704 963 971 2575 l -2755 376 q -188 -1284 -1088 -2004 q -900 -720 -2544 -720 q -1941 0 -2771 642 q -830 642 -830 1503 q 0 548 344 986 q 344 454 1080 751 q 423 157 2489 720 q 2990 798 4172 1307 q 1182 509 1855 1479 q 673 971 673 2411 q 0 1409 -822 2653 q -822 1244 -2372 1925 q -1550 681 -3506 681 q -3240 0 -4939 -1346 q -1698 -1346 -2168 -3992 Z M 325723 173428 l 407 2489 q -1190 250 -2129 250 q -1534 0 -2379 -485 q -845 -485 -1190 -1276 q -344 -791 -344 -3326 l 0 -9565 l -2066 0 l 0 -2192 l 2066 0 l 0 -4117 l 2802 -1691 l 0 5808 l 2833 0 l 0 2192 l -2833 0 l 0 9721 q 0 1205 149 1550 q 149 344 485 548 q 337 204 963 204 q 470 0 1237 -110 Z M 328447 175948 l 0 -16625 l 2536 0 l 0 2520 q 971 -1769 1792 -2332 q 822 -564 1808 -564 q 1425 0 2896 908 l -971 2614 q -1033 -611 -2066 -611 q -924 0 -1659 556 q -736 556 -1049 1542 q -470 1503 -470 3287 l 0 8704 l -2818 0 Z M 350535 170594 l 2912 360 q -689 2552 -2552 3960 q -1863 1409 -4759 1409 q -3647 0 -5784 -2246 q -2137 -2246 -2137 -6301 q 0 -4195 2160 -6512 q 2160 -2317 5604 -2317 q 3334 0 5448 2270 q 2113 2270 2113 6387 q 0 250 -16 751 l -12398 0 q 157 2739 1550 4195 q 1393 1456 3475 1456 q 1550 0 2646 -814 q 1096 -814 1738 -2599 m -9251 -4555 l 9283 0 q -188 -2098 -1064 -3146 q -1346 -1628 -3491 -1628 q -1941 0 -3264 1299 q -1323 1299 -1464 3475 Z" class="C3" /></g></svg>