<?xml version='1.0' encoding='utf-8'?>
<svg xmlns="http://www.w3.org/2000/svg" width="400mm" height="70.4mm" viewBox="0 0 1000000 176000"><defs><style>.C1 {stroke: #000000; stroke-width: 625; stroke-opacity: 1.000; fill: none; fill-opacity: 1.000;}</style></defs><rect fill="#ffffff" x="0" y="0" width="1000000" height="176000" fill-opacity="1.0" /><g stroke-linecap="round" stroke-linejoin="round" fill-rule="evenodd"><path d="M 25000 121125 c 25 557 70 1116 186 1661 c 116 545 303 1076 526 1589 c 447 1025 1042 1976 1705 2874 c 663 898 1394 1744 2148 2567 c 754 823 1532 1623 2309 2424" class="C1" /><path d="M 963687 41628 l -7071 7071" class="C1" /><path d="M 41616 36324 c -947 -947 -2328 -1317 -3622 -971 c -1294 347 -2305 1358 -2652 2652 c -347 1294 23 2675 971 3622" class="C1" /><path d="M 25000 119875 l -0 -11113" class="C1" /><path d="M 975000 119875 l 0 1250" class="C1" /><path d="M 41616 36324 l 7071 7071" class="C1" /><path d="M 951313 43395 c -1464 1464 -1464 3839 0 5303 c 1464 1464 3839 1464 5303 0" class="C1" /><path d="M 37500 25012 c -3315 0 -6495 1317 -8839 3661 c -2344 2344 -3661 5524 -3661 8839" class="C1" /><path d="M 25000 121125 l 0 -1250" class="C1" /><path d="M 975000 37512 c 0 -6904 -5596 -12500 -12500 -12500" class="C1" /><path d="M 942667 150988 c 3110 0 6108 -1159 8408 -3251" class="C1" /><path d="M 25000 108762 l -0 -71250" class="C1" /><path d="M 968125 132238 l -17049 15499" class="C1" /><path d="M 48924 147738 c 2301 2092 5299 3251 8408 3251" class="C1" /><path d="M 48924 147738 l -17049 -15499" class="C1" /><path d="M 915957 78751 c -1464 1464 -1464 3839 0 5303 c 1464 1464 3839 1464 5303 0" class="C1" /><path d="M 915957 78751 l 7071 -7071" class="C1" /><path d="M 78739 84054 l -7071 -7071" class="C1" /><path d="M 942667 150988 l -885335 0" class="C1" /><path d="M 951313 43395 l 7071 -7071" class="C1" /><path d="M 76971 71680 c -1464 -1464 -3839 -1464 -5303 0 c -1464 1464 -1464 3839 -0 5303" class="C1" /><path d="M 963687 41628 c 1464 -1464 1464 -3839 0 -5303 c -1464 -1464 -3839 -1464 -5303 -0" class="C1" /><path d="M 43384 48699 l -7071 -7071" class="C1" /><path d="M 975000 37512 l 0 71250" class="C1" /><path d="M 76971 71680 l 7071 7071" class="C1" /><path d="M 968125 132238 c 778 -800 1556 -1600 2309 -2424 c 753 -823 1482 -1669 2148 -2567 c 666 -897 1269 -1846 1706 -2874 c 437 -1028 707 -2134 713 -3250" class="C1" /><path d="M 928332 76983 l -7071 7071" class="C1" /><path d="M 43384 48699 c 947 947 2328 1317 3622 971 c 1294 -347 2305 -1358 2652 -2652 c 347 -1294 -23 -2675 -971 -3622" class="C1" /><path d="M 37500 25012 l 925000 0" class="C1" /><path d="M 78739 84054 c 947 947 2328 1317 3622 971 c 1294 -347 2305 -1358 2652 -2652 c 347 -1294 -23 -2675 -971 -3622" class="C1" /><path d="M 975000 108762 l 0 11113" class="C1" /><path d="M 928332 76983 c 1464 -1464 1464 -3839 0 -5303 c -1464 -1464 -3839 -1464 -5303 -0" class="C1" /></g></svg>