<?xml version='1.0' encoding='utf-8'?>
<svg xmlns="http://www.w3.org/2000/svg" width="230mm" height="180mm" viewBox="0 0 1000000 782609"><defs><style>.C1 {stroke: #000000; stroke-width: 1522; stroke-opacity: 1.000; fill: none; fill-opacity: 1.000;}</style><style>.C2 {stroke: none; stroke-width: none; stroke-opacity: 1.000; fill: #000000; fill-opacity: 1.000;}</style></defs><rect fill="#ffffff" x="0" y="0" width="1000000" height="782609" fill-opacity="1.0" /><g stroke-linecap="round" stroke-linejoin="round" fill-rule="evenodd"><path d="M 950000 384783 c -3602 0 -6522 2920 -6522 6522 c 0 3602 2920 6522 6522 6522 l 6522 0 l 0 318447 c 0 12624 -10233 22857 -22857 22857 l -866622 0 c -13014 0 -23564 -10550 -23564 -23564 l 0 -317740 l 6522 0 c 3602 0 6522 -2920 6522 -6522 c 0 -3602 -2920 -6522 -6522 -6522 l -6522 0 l 0 -297021 c 0 -24457 19826 -44284 44284 -44284 l 825183 0 c 24067 0 43576 19510 43576 43576 l 0 297728 l -6522 0" class="C1" /><path d="M 904348 86957 c -4803 0 -8696 3893 -8696 8696 c 0 4802 3893 8696 8696 8696 c 4802 0 8696 -3893 8696 -8696 c 0 -4802 -3893 -8696 -8696 -8696" class="C1" /><path d="M 904348 208697 c -4803 0 -8696 3893 -8696 8696 c 0 4803 3893 8696 8696 8696 c 4802 0 8696 -3893 8696 -8696 c 0 -4802 -3893 -8696 -8696 -8696" class="C1" /><path d="M 580870 86957 c -4803 0 -8696 3893 -8696 8696 c 0 4802 3893 8696 8696 8696 c 4802 0 8696 -3893 8696 -8696 c 0 -4802 -3893 -8696 -8696 -8696" class="C1" /><path d="M 580870 208697 c -4803 0 -8696 3893 -8696 8696 c 0 4803 3893 8696 8696 8696 c 4802 0 8696 -3893 8696 -8696 c 0 -4802 -3893 -8696 -8696 -8696" class="C1" /><path d="M 419130 86957 c -4802 0 -8696 3893 -8696 8696 c 0 4802 3893 8696 8696 8696 c 4803 0 8696 -3893 8696 -8696 c 0 -4802 -3893 -8696 -8696 -8696" class="C1" /><path d="M 419130 208697 c -4802 0 -8696 3893 -8696 8696 c 0 4803 3893 8696 8696 8696 c 4803 0 8696 -3893 8696 -8696 c 0 -4802 -3893 -8696 -8696 -8696" class="C1" /><path d="M 85870 713043 c 9605 0 17391 -7786 17391 -17391 c 0 -9605 -7786 -17391 -17391 -17391 c -9605 0 -17391 7786 -17391 17391 c 0 9605 7786 17391 17391 17391" class="C1" /><path d="M 85870 452174 c 9605 0 17391 -7786 17391 -17391 c 0 -9605 -7786 -17391 -17391 -17391 c -9605 0 -17391 7786 -17391 17391 c 0 9605 7786 17391 17391 17391" class="C1" /><path d="M 95652 347827 c 4803 0 8696 -3893 8696 -8696 c 0 -4803 -3893 -8696 -8696 -8696 c -4802 0 -8696 3893 -8696 8696 c 0 4802 3893 8696 8696 8696" class="C1" /><path d="M 95652 226088 c 4803 0 8696 -3893 8696 -8696 c 0 -4802 -3893 -8696 -8696 -8696 c -4802 0 -8696 3893 -8696 8696 c 0 4803 3893 8696 8696 8696" class="C1" /><path d="M 95652 104349 c 4803 0 8696 -3893 8696 -8696 c 0 -4802 -3893 -8696 -8696 -8696 c -4802 0 -8696 3893 -8696 8696 c 0 4802 3893 8696 8696 8696" class="C1" /><path d="M 257391 104349 c 4802 0 8696 -3893 8696 -8696 c 0 -4802 -3893 -8696 -8696 -8696 c -4803 0 -8696 3893 -8696 8696 c 0 4802 3893 8696 8696 8696" class="C1" /><path d="M 265217 391304 c 0 3602 2920 6522 6522 6522 l 117391 0 c 3602 0 6522 -2920 6522 -6522 c 0 -3602 -2920 -6522 -6522 -6522 l -117391 0 c -3602 0 -6522 2920 -6522 6522" class="C1" /><path d="M 500000 695652 c 72037 0 130435 -58398 130435 -130435 c 0 -72037 -58398 -130435 -130435 -130435 c -72037 0 -130435 58398 -130435 130435 c 0 72037 58398 130435 130435 130435" class="C1" /><path d="M 728261 397826 c 3602 0 6522 -2920 6522 -6522 c 0 -3602 -2920 -6522 -6522 -6522 l -117391 0 c -3602 0 -6522 2920 -6522 6522 c 0 3602 2920 6522 6522 6522 l 117391 0" class="C1" /><path d="M 742609 104349 c 4802 0 8696 -3893 8696 -8696 c 0 -4802 -3893 -8696 -8696 -8696 c -4802 0 -8696 3893 -8696 8696 c 0 4802 3893 8696 8696 8696" class="C1" /><path d="M 904348 330436 c -4803 0 -8696 3893 -8696 8696 c 0 4802 3893 8696 8696 8696 c 4802 0 8696 -3893 8696 -8696 c 0 -4803 -3893 -8696 -8696 -8696" class="C1" /><path d="M 914130 713043 c 9605 0 17391 -7786 17391 -17391 c 0 -9605 -7786 -17391 -17391 -17391 c -9605 0 -17391 7786 -17391 17391 c 0 9605 7786 17391 17391 17391" class="C1" /><path d="M 914130 452174 c 9605 0 17391 -7786 17391 -17391 c 0 -9605 -7786 -17391 -17391 -17391 c -9605 0 -17391 7786 -17391 17391 c 0 9605 7786 17391 17391 17391" class="C1" /><path d="M 950000 384783 c -3602 0 -6522 2920 -6522 6522 c 0 3602 2920 6522 6522 6522 l 6522 0 l 0 318447 c 0 12624 -10233 22857 -22857 22857 l -866622 0 c -13014 0 -23564 -10550 -23564 -23564 l 0 -317740 l 6522 0 c 3602 0 6522 -2920 6522 -6522 c 0 -3602 -2920 -6522 -6522 -6522 l -6522 0 l 0 -297021 c 0 -24457 19826 -44284 44284 -44284 l 825183 0 c 24067 0 43576 19510 43576 43576 l 0 297728 l -6522 0 Z M 904348 86957 c -4803 0 -8696 3893 -8696 8696 c 0 4802 3893 8696 8696 8696 c 4802 0 8696 -3893 8696 -8696 c 0 -4802 -3893 -8696 -8696 -8696 Z M 904348 208697 c -4803 0 -8696 3893 -8696 8696 c 0 4803 3893 8696 8696 8696 c 4802 0 8696 -3893 8696 -8696 c 0 -4802 -3893 -8696 -8696 -8696 Z M 580870 86957 c -4803 0 -8696 3893 -8696 8696 c 0 4802 3893 8696 8696 8696 c 4802 0 8696 -3893 8696 -8696 c 0 -4802 -3893 -8696 -8696 -8696 Z M 580870 208697 c -4803 0 -8696 3893 -8696 8696 c 0 4803 3893 8696 8696 8696 c 4802 0 8696 -3893 8696 -8696 c 0 -4802 -3893 -8696 -8696 -8696 Z M 419130 86957 c -4802 0 -8696 3893 -8696 8696 c 0 4802 3893 8696 8696 8696 c 4803 0 8696 -3893 8696 -8696 c 0 -4802 -3893 -8696 -8696 -8696 Z M 419130 208697 c -4802 0 -8696 3893 -8696 8696 c 0 4803 3893 8696 8696 8696 c 4803 0 8696 -3893 8696 -8696 c 0 -4802 -3893 -8696 -8696 -8696 Z M 85870 713043 c 9605 0 17391 -7786 17391 -17391 c 0 -9605 -7786 -17391 -17391 -17391 c -9605 0 -17391 7786 -17391 17391 c 0 9605 7786 17391 17391 17391 Z M 85870 452174 c 9605 0 17391 -7786 17391 -17391 c 0 -9605 -7786 -17391 -17391 -17391 c -9605 0 -17391 7786 -17391 17391 c 0 9605 7786 17391 17391 17391 Z M 95652 347827 c 4803 0 8696 -3893 8696 -8696 c 0 -4803 -3893 -8696 -8696 -8696 c -4802 0 -8696 3893 -8696 8696 c 0 4802 3893 8696 8696 8696 Z M 95652 226088 c 4803 0 8696 -3893 8696 -8696 c 0 -4802 -3893 -8696 -8696 -8696 c -4802 0 -8696 3893 -8696 8696 c 0 4803 3893 8696 8696 8696 Z M 95652 104349 c 4803 0 8696 -3893 8696 -8696 c 0 -4802 -3893 -8696 -8696 -8696 c -4802 0 -8696 3893 -8696 8696 c 0 4802 3893 8696 8696 8696 Z M 257391 104349 c 4802 0 8696 -3893 8696 -8696 c 0 -4802 -3893 -8696 -8696 -8696 c -4803 0 -8696 3893 -8696 8696 c 0 4802 3893 8696 8696 8696 Z M 265217 391304 c 0 3602 2920 6522 6522 6522 l 117391 0 c 3602 0 6522 -2920 6522 -6522 c 0 -3602 -2920 -6522 -6522 -6522 l -117391 0 c -3602 0 -6522 2920 -6522 6522 Z M 500000 695652 c 72037 0 130435 -58398 130435 -130435 c 0 -72037 -58398 -130435 -130435 -130435 c -72037 0 -130435 58398 -130435 130435 c 0 72037 58398 130435 130435 130435 Z M 728261 397826 c 3602 0 6522 -2920 6522 -6522 c 0 -3602 -2920 -6522 -6522 -6522 l -117391 0 c -3602 0 -6522 2920 -6522 6522 c 0 3602 2920 6522 6522 6522 l 117391 0 Z M 742609 104349 c 4802 0 8696 -3893 8696 -8696 c 0 -4802 -3893 -8696 -8696 -8696 c -4802 0 -8696 3893 -8696 8696 c 0 4802 3893 8696 8696 8696 Z M 904348 330436 c -4803 0 -8696 3893 -8696 8696 c 0 4802 3893 8696 8696 8696 c 4802 0 8696 -3893 8696 -8696 c 0 -4803 -3893 -8696 -8696 -8696 Z M 914130 713043 c 9605 0 17391 -7786 17391 -17391 c 0 -9605 -7786 -17391 -17391 -17391 c -9605 0 -17391 7786 -17391 17391 c 0 9605 7786 17391 17391 17391 Z M 914130 452174 c 9605 0 17391 -7786 17391 -17391 c 0 -9605 -7786 -17391 -17391 -17391 c -9605 0 -17391 7786 -17391 17391 c 0 9605 7786 17391 17391 17391 Z" class="C2" /></g></svg>