<?xml version='1.0' encoding='utf-8'?>
<svg xmlns="http://www.w3.org/2000/svg" width="647.9mm" height="317mm" viewBox="0 0 1000000 489273"><defs><style>.C1 {stroke: #000000; stroke-width: 386; stroke-opacity: 1.000; fill: none; fill-opacity: 1.000;}</style></defs><rect fill="#ffffff" x="0" y="0" width="1000000" height="489273" fill-opacity="1.0" /><g stroke-linecap="round" stroke-linejoin="round" fill-rule="evenodd"><path d="M 15434 473834 l 0 -458394" class="C1" /><path d="M 15434 473834 l 648234 0" class="C1" /><path d="M 15434 15440 l 648234 0" class="C1" /><path d="M 663668 473834 l 0 -458394" class="C1" /><path d="M 853375 304450 l 0 -216078" class="C1" /><path d="M 984566 88372 l 0 216078" class="C1" /><path d="M 984566 88372 c 0 -36227 -29368 -65595 -65595 -65595 c -36227 0 -65595 29368 -65595 65595" class="C1" /><path d="M 853375 304450 c 0 36227 29368 65595 65595 65595 c 36227 0 65595 -29368 65595 -65595" class="C1" /><path d="M 966045 88372 c 0 25998 -21076 47074 -47074 47074 c -25998 0 -47074 -21076 -47074 -47074 c 0 -25998 21076 -47074 47074 -47074 c 25998 0 47074 21076 47074 47074" class="C1" /><path d="M 966045 196411 c 0 25998 -21076 47074 -47074 47074 c -25998 0 -47074 -21076 -47074 -47074 c 0 -25998 21076 -47074 47074 -47074 c 25998 0 47074 21076 47074 47074" class="C1" /><path d="M 966045 304450 c 0 25998 -21076 47074 -47074 47074 c -25998 0 -47074 -21076 -47074 -47074 c 0 -25998 21076 -47074 47074 -47074 c 25998 0 47074 21076 47074 47074" class="C1" /></g></svg>