<?xml version='1.0' encoding='utf-8'?>
<svg xmlns="http://www.w3.org/2000/svg" width="135mm" height="199.5mm" viewBox="0 0 676692 1000000"><defs><style>.C1 {stroke: #000000; stroke-width: 451; stroke-opacity: 1.000; fill: none; fill-opacity: 1.000;}</style></defs><rect fill="#ffffff" x="0" y="0" width="676692" height="1000000" fill-opacity="1.0" /><g stroke-linecap="round" stroke-linejoin="round" fill-rule="evenodd"><path d="M 338346 442329 c 57439 0 104003 -46564 104003 -104003 c 0 -57439 -46564 -104003 -104003 -104003 c -54056 0 -98467 41244 -103512 93979 l 12040 0 l 0 20049 l -12040 0 c 5045 52734 49456 93979 103512 93979" class="C1" /><path d="M 338346 50125 c 159169 0 288201 129032 288201 288201 c 0 89198 -40529 168925 -104168 221789 l -368065 0 c -63640 -52865 -104168 -132591 -104168 -221789 c 0 -159169 129032 -288201 288201 -288201" class="C1" /><path d="M 542193 769425 c 15216 531 27981 -11373 28512 -26588 c 531 -15216 -11373 -27981 -26588 -28512 c -15216 -531 -27981 11373 -28512 26588 c -531 15216 11373 27981 26588 28512" class="C1" /><path d="M 111408 754382 c 15216 531 27981 -11373 28512 -26588 c 531 -15216 -11373 -27981 -26588 -28512 c -15216 -531 -27981 11373 -28512 26588 c -531 15216 11373 27981 26588 28512" class="C1" /><path d="M 476342 720626 c 10789 -2491 17516 -13256 15025 -24045 c -2491 -10789 -13256 -17516 -24045 -15025 c -10789 2491 -17516 13256 -15025 24045 c 2491 10789 13256 17516 24045 15025" class="C1" /><path d="M 188203 787149 c 10789 -2491 17516 -13256 15025 -24045 c -2491 -10789 -13256 -17516 -24045 -15025 c -10789 2491 -17516 13256 -15025 24045 c 2491 10789 13256 17516 24045 15025" class="C1" /><path d="M 620964 733741 c 1 117 11 227 11 345 c 0 22748 0 45495 0 68243 l -14 0 c 0 81487 -66059 147546 -147546 147546 l -271271 0 c -81487 0 -147546 -66059 -147546 -147546 l 0 -68717 c 0 -344 17 -672 23 -1011 c 8 -1075 46 -2137 73 -3205 l 33 0 c 0 -1268 52 -2524 96 -3782 c 59 -1299 120 -2598 206 -3885 c 21 -298 45 -595 68 -893 c 69 -958 154 -1907 237 -2857 c 5619 -53409 50209 -95173 104812 -96400 c 1057 -0 1794 -0 2078 -1 l -2058 0 c 586 -13 1169 -41 1757 -44 c 17842 -6 40007 -9 65585 -9 c 5513 0 10037 4511 10037 10024 l 0 102802 c 0 49212 39402 89222 88380 90201 c 50800 1016 92059 -41048 92059 -91858 l 0 -101017 c 0 -5591 4543 -10122 10134 -10121 c 33301 7 63404 14 86683 18 c 53769 927 97930 41171 104979 93229 c 404 3352 705 6754 900 10201 c 59 1462 111 2925 111 4401 l 85 0 c 43 1440 84 2881 89 4334" class="C1" /></g></svg>