<?xml version='1.0' encoding='utf-8'?>
<svg xmlns="http://www.w3.org/2000/svg" width="956mm" height="483.8mm" viewBox="0 0 1000000 506067"><defs><style>.C1 {stroke: #000000; stroke-width: 262; stroke-opacity: 1.000; fill: none; fill-opacity: 1.000;}</style></defs><rect fill="#ffffff" x="0" y="0" width="1000000" height="506067" fill-opacity="1.0" /><g stroke-linecap="round" stroke-linejoin="round" fill-rule="evenodd"><path d="M 11048 298612 c -289 0 -523 234 -523 523" class="C1" /><path d="M 10525 325806 l 0 29809" class="C1" /><path d="M 10525 355615 c 0 289 234 523 523 523" class="C1" /><path d="M 11048 325283 c -289 0 -523 234 -523 523" class="C1" /><path d="M 413133 300739 c -1819 -1380 -4039 -2127 -6323 -2127" class="C1" /><path d="M 413133 300739 c 8161 6193 19606 5564 27039 -1485" class="C1" /><path d="M 10525 299135 l 0 14120" class="C1" /><path d="M 10525 313255 c 0 289 234 523 523 523" class="C1" /><path d="M 10525 313255 c 0 289 234 523 523 523" class="C1" /><path d="M 11048 313778 l 9413 0" class="C1" /><path d="M 20984 314301 c 0 -289 -234 -523 -523 -523" class="C1" /><path d="M 20984 314301 l 0 10459" class="C1" /><path d="M 20984 314301 c 0 -289 -234 -523 -523 -523" class="C1" /><path d="M 20461 325283 c 289 0 523 -234 523 -523" class="C1" /><path d="M 20461 325283 l -9413 0" class="C1" /><path d="M 11048 325283 c -289 0 -523 234 -523 523" class="C1" /><path d="M 864499 215670 l 0 -4638" class="C1" /><path d="M 864709 210823 c -116 0 -209 94 -209 209" class="C1" /><path d="M 886987 210823 l -22278 0" class="C1" /><path d="M 886987 210823 c 34659 0 62755 -28097 62755 -62755" class="C1" /><path d="M 949742 105116 l 0 42952" class="C1" /><path d="M 949742 105116 c 0 -34659 -28097 -62755 -62755 -62755" class="C1" /><path d="M 691428 42361 l 195558 0" class="C1" /><path d="M 691428 42361 c -34659 0 -62755 28097 -62755 62755" class="C1" /><path d="M 628673 120351 l 0 -15235" class="C1" /><path d="M 628673 120351 l 0 27717" class="C1" /><path d="M 628673 148068 c 0 34659 28097 62755 62755 62755" class="C1" /><path d="M 713707 210823 l -22278 0" class="C1" /><path d="M 713916 211033 c 0 -116 -94 -209 -209 -209" class="C1" /><path d="M 713916 215670 l -0 -4638" class="C1" /><path d="M 723329 215670 l 0 -4638" class="C1" /><path d="M 723538 210823 c -116 0 -209 94 -209 209" class="C1" /><path d="M 807332 210823 l -83793 0" class="C1" /><path d="M 854877 210823 l -47545 -0" class="C1" /><path d="M 855086 211033 c 0 -116 -94 -209 -209 -209" class="C1" /><path d="M 855086 215670 l 0 -4638" class="C1" /><path d="M 659923 10460 l 310737 0" class="C1" /><path d="M 453665 286459 l 77417 -73416" class="C1" /><path d="M 552673 204433 c -8034 0 -15762 3082 -21591 8610" class="C1" /><path d="M 659923 10460 l -78317 0" class="C1" /><path d="M 941831 219911 c 25300 -20222 39804 -51024 39275 -83408" class="C1" /><path d="M 905792 236640 c 13182 -2602 25543 -8340 36038 -16729" class="C1" /><path d="M 981107 52009 l 1 -31588" class="C1" /><path d="M 981107 52009 c -0 139 55 272 153 370 c 98 98 231 153 370 153" class="C1" /><path d="M 981108 20421 c -266 -5577 -4865 -9961 -10447 -9961" class="C1" /><path d="M 584617 204433 l -31944 0" class="C1" /><path d="M 597168 191882 l -0 -40248" class="C1" /><path d="M 584617 204433 c 6932 0 12551 -5619 12551 -12551" class="C1" /><path d="M 581607 10460 l -55618 0" class="C1" /><path d="M 565564 118540 c -586 -37886 -15835 -74069 -42543 -100947" class="C1" /><path d="M 525989 10460 c -1690 0 -3214 1016 -3863 2577 c -649 1560 -296 3357 895 4556" class="C1" /><path d="M 565564 118540 c 170 10975 8793 19952 19752 20562" class="C1" /><path d="M 597168 151634 c 0 -6660 -5202 -12161 -11853 -12532" class="C1" /><path d="M 453665 286459 l -13493 12795" class="C1" /><path d="M 370726 445041 l 61267 0" class="C1" /><path d="M 370203 444518 c 0 289 234 523 523 523" class="C1" /><path d="M 187779 313464 l -8367 0" class="C1" /><path d="M 179412 313464 c -289 0 -523 234 -523 523" class="C1" /><path d="M 178889 324446 l 0 -10459" class="C1" /><path d="M 178889 324446 c 0 289 234 523 523 523" class="C1" /><path d="M 187779 324969 l -8367 -0" class="C1" /><path d="M 187779 324969 c 289 0 523 -234 523 -523" class="C1" /><path d="M 188302 313987 l 0 10459" class="C1" /><path d="M 188302 313987 c 0 -289 -234 -523 -523 -523" class="C1" /><path d="M 855086 26672 l 0 10459" class="C1" /><path d="M 855086 37131 c 0 289 234 523 523 523" class="C1" /><path d="M 863977 37654 l -8367 0" class="C1" /><path d="M 863977 37654 c 289 0 523 -234 523 -523" class="C1" /><path d="M 864499 26672 l 0 10459" class="C1" /><path d="M 864499 26672 c 0 -289 -234 -523 -523 -523" class="C1" /><path d="M 863977 26149 l -8367 0" class="C1" /><path d="M 855609 26149 c -289 0 -523 234 -523 523" class="C1" /><path d="M 855609 26149 c -289 0 -523 234 -523 523" class="C1" /><path d="M 784515 26672 l 0 10459" class="C1" /><path d="M 785038 26149 c -139 0 -272 55 -370 153 c -98 98 -153 231 -153 370" class="C1" /><path d="M 793406 37654 l -8367 -0" class="C1" /><path d="M 784515 37131 c 0 289 234 523 523 523" class="C1" /><path d="M 793929 26672 l 0 10459" class="C1" /><path d="M 793406 37654 c 289 0 523 -234 523 -523" class="C1" /><path d="M 793406 26149 l -8367 -0" class="C1" /><path d="M 793929 26672 c 0 -289 -234 -523 -523 -523" class="C1" /><path d="M 713916 26672 l 0 10459" class="C1" /><path d="M 713916 37131 c 0 289 234 523 523 523" class="C1" /><path d="M 722806 37654 l -8367 0" class="C1" /><path d="M 722806 37654 c 139 0 272 -55 370 -153 c 98 -98 153 -231 153 -370" class="C1" /><path d="M 723329 26672 l 0 10459" class="C1" /><path d="M 723329 26672 c 0 -289 -234 -523 -523 -523" class="C1" /><path d="M 722806 26149 l -8367 -0" class="C1" /><path d="M 714439 26149 c -289 0 -523 234 -523 523" class="C1" /><path d="M 793406 215461 l -8367 0" class="C1" /><path d="M 785038 215461 c -289 0 -523 234 -523 523" class="C1" /><path d="M 784515 215984 l 0 10459" class="C1" /><path d="M 784515 226443 c 0 289 234 523 523 523" class="C1" /><path d="M 793406 226966 l -8367 0" class="C1" /><path d="M 793406 226966 c 289 0 523 -234 523 -523" class="C1" /><path d="M 793929 215984 l 0 10459" class="C1" /><path d="M 793929 215984 c 0 -289 -234 -523 -523 -523" class="C1" /><path d="M 626581 184675 l 0 -10459" class="C1" /><path d="M 626058 173693 l -8367 0" class="C1" /><path d="M 626581 174216 c 0 -289 -234 -523 -523 -523" class="C1" /><path d="M 617168 174216 l 0 10459" class="C1" /><path d="M 617691 173693 c -289 0 -523 234 -523 523" class="C1" /><path d="M 626058 185198 l -8367 0" class="C1" /><path d="M 626058 185198 c 289 0 523 -234 523 -523" class="C1" /><path d="M 617168 184675 c 0 289 234 523 523 523" class="C1" /><path d="M 626058 79491 l -8367 -0" class="C1" /><path d="M 626058 79491 c 139 0 272 -55 370 -153 c 98 -98 153 -231 153 -370" class="C1" /><path d="M 626581 78968 l -0 -10459" class="C1" /><path d="M 626581 68509 c 0 -289 -234 -523 -523 -523" class="C1" /><path d="M 626058 67986 l -8367 0" class="C1" /><path d="M 617691 67986 c -289 0 -523 234 -523 523" class="C1" /><path d="M 617168 68509 l 0 10459" class="C1" /><path d="M 617168 78968 c 0 289 234 523 523 523" class="C1" /><path d="M 960724 173693 l -8367 -0" class="C1" /><path d="M 952357 173693 c -289 0 -523 234 -523 523" class="C1" /><path d="M 951834 184675 l 0 -10459" class="C1" /><path d="M 951834 184675 c 0 289 234 523 523 523" class="C1" /><path d="M 960724 185198 l -8367 0" class="C1" /><path d="M 960724 185198 c 289 0 523 -234 523 -523" class="C1" /><path d="M 961247 174216 l 0 10459" class="C1" /><path d="M 961247 174216 c 0 -289 -234 -523 -523 -523" class="C1" /><path d="M 961247 68509 l 0 10459" class="C1" /><path d="M 961247 68509 c 0 -289 -234 -523 -523 -523" class="C1" /><path d="M 960724 67986 l -8367 0" class="C1" /><path d="M 952357 67986 c -289 0 -523 234 -523 523" class="C1" /><path d="M 951834 78968 l 0 -10459" class="C1" /><path d="M 951834 78968 c 0 289 234 523 523 523" class="C1" /><path d="M 960724 79491 l -8367 0" class="C1" /><path d="M 960724 79491 c 289 0 523 -234 523 -523" class="C1" /><path d="M 864709 210823 c -116 0 -209 94 -209 209" class="C1" /><path d="M 713916 211033 c 0 -116 -94 -209 -209 -209" class="C1" /><path d="M 713916 215670 l 0 10773" class="C1" /><path d="M 722806 226966 l -8367 0" class="C1" /><path d="M 713916 226443 c 0 289 234 523 523 523" class="C1" /><path d="M 723329 215670 l 0 10773" class="C1" /><path d="M 722806 226966 c 289 0 523 -234 523 -523" class="C1" /><path d="M 723538 210823 c -116 0 -209 94 -209 209" class="C1" /><path d="M 855086 211033 c 0 -116 -94 -209 -209 -209" class="C1" /><path d="M 855086 215670 l 0 10773" class="C1" /><path d="M 855086 226443 c 0 289 234 523 523 523" class="C1" /><path d="M 863977 226966 l -8367 0" class="C1" /><path d="M 863977 226966 c 289 0 523 -234 523 -523" class="C1" /><path d="M 864499 215670 l 0 10773" class="C1" /><path d="M 426160 392745 l -8367 0" class="C1" /><path d="M 417269 361890 l 0 30332" class="C1" /><path d="M 417269 392222 c 0 289 234 523 523 523" class="C1" /><path d="M 417792 361367 l 8367 0" class="C1" /><path d="M 417792 361367 c -289 0 -523 234 -523 523" class="C1" /><path d="M 426683 361890 l 0 30332" class="C1" /><path d="M 426160 392745 c 289 0 523 -234 523 -523" class="C1" /><path d="M 426683 361890 c 0 -289 -234 -523 -523 -523" class="C1" /><path d="M 781241 261225 l 124551 -24586" class="C1" /><path d="M 442414 434705 c -3387 3354 -6735 6746 -10044 10176" class="C1" /><path d="M 542974 451780 c -8868 -18179 -25955 -30969 -45896 -34355 c -19941 -3386 -40292 3047 -54664 17280" class="C1" /><path d="M 431993 445041 c 142 0 278 -58 376 -160" class="C1" /><path d="M 981630 52532 l 7322 0" class="C1" /><path d="M 989475 53055 c 0 -289 -234 -523 -523 -523" class="C1" /><path d="M 981107 52009 c -0 139 55 272 153 370 c 98 98 231 153 370 153" class="C1" /><path d="M 989475 53055 l 0 32193" class="C1" /><path d="M 989475 53055 c 0 -289 -234 -523 -523 -523" class="C1" /><path d="M 989475 53055 c 0 -289 -234 -523 -523 -523" class="C1" /><path d="M 981629 85771 c -289 0 -523 234 -523 523" class="C1" /><path d="M 981629 85771 l 7324 0" class="C1" /><path d="M 988952 85771 c 289 0 523 -234 523 -523" class="C1" /><path d="M 988952 85771 c 289 0 523 -234 523 -523" class="C1" /><path d="M 370203 444518 l 0 -25625" class="C1" /><path d="M 370203 418893 c 0 -34659 -28097 -62755 -62755 -62755" class="C1" /><path d="M 10525 355615 c 0 289 234 523 523 523" class="C1" /><path d="M 595204 74575 l 0 -7321" class="C1" /><path d="M 595204 67254 c 0 -289 -234 -523 -523 -523" class="C1" /><path d="M 594681 66731 l -9413 0" class="C1" /><path d="M 585267 66731 c -289 0 -523 234 -523 523" class="C1" /><path d="M 584744 67254 l 0 7321" class="C1" /><path d="M 584744 74575 c 0 289 234 523 523 523" class="C1" /><path d="M 585267 75098 l 9413 0" class="C1" /><path d="M 594681 75098 c 289 0 523 -234 523 -523" class="C1" /><path d="M 668764 455382 l -4420 -9479" class="C1" /><path d="M 668511 456076 c 126 -59 223 -165 270 -295 c 47 -130 41 -274 -17 -400" class="C1" /><path d="M 656065 449185 l 7583 -3536" class="C1" /><path d="M 664343 445902 c -122 -262 -433 -375 -695 -253" class="C1" /><path d="M 660232 459360 l -4420 -9479" class="C1" /><path d="M 656065 449185 c -262 122 -375 433 -253 695" class="C1" /><path d="M 660927 459613 l 7583 -3536" class="C1" /><path d="M 660232 459360 c 59 126 165 223 295 270 c 130 47 274 41 400 -17" class="C1" /><path d="M 681141 275273 l 4420 9479" class="C1" /><path d="M 681394 274578 c -126 59 -223 165 -270 295 c -47 130 -41 274 17 400" class="C1" /><path d="M 686256 285005 l 7583 -3536" class="C1" /><path d="M 685561 284752 c 122 262 433 375 695 253" class="C1" /><path d="M 694092 280774 l -4420 -9479" class="C1" /><path d="M 693839 281469 c 126 -59 223 -165 270 -295 c 47 -130 41 -274 -17 -400" class="C1" /><path d="M 681394 274578 l 7583 -3536" class="C1" /><path d="M 689672 271294 c -59 -126 -165 -223 -295 -270 c -130 -47 -274 -41 -400 17" class="C1" /><path d="M 726067 370381 l 7583 -3536" class="C1" /><path d="M 734346 367098 c -122 -262 -433 -375 -695 -253" class="C1" /><path d="M 725814 371076 l 4420 9479" class="C1" /><path d="M 726067 370381 c -126 59 -223 165 -270 295 c -47 130 -41 274 17 400" class="C1" /><path d="M 730930 380808 l 7583 -3536" class="C1" /><path d="M 730235 380555 c 122 262 433 375 695 253" class="C1" /><path d="M 738766 376577 l -4420 -9479" class="C1" /><path d="M 738513 377272 c 126 -59 223 -165 270 -295 c 47 -130 41 -274 -17 -400" class="C1" /><path d="M 513759 365441 l 7583 -3536" class="C1" /><path d="M 521343 361905 c 126 -59 223 -165 270 -295 c 47 -130 41 -274 -17 -400" class="C1" /><path d="M 517175 351731 l 4420 9479" class="C1" /><path d="M 517175 351731 c -122 -262 -433 -375 -695 -253" class="C1" /><path d="M 508897 355014 l 7583 -3536" class="C1" /><path d="M 508897 355014 c -126 59 -223 165 -270 295 c -47 130 -41 274 17 400" class="C1" /><path d="M 513064 365188 l -4420 -9479" class="C1" /><path d="M 513064 365188 c 122 262 433 375 695 253" class="C1" /><path d="M 557738 460992 l -4420 -9479" class="C1" /><path d="M 553571 450817 c -126 59 -223 165 -270 295 c -47 130 -41 274 17 400" class="C1" /><path d="M 558433 461245 l 7583 -3536" class="C1" /><path d="M 557738 460992 c 122 262 433 375 695 253" class="C1" /><path d="M 561849 447534 l 4420 9479" class="C1" /><path d="M 566017 457708 c 262 -122 375 -433 253 -695" class="C1" /><path d="M 553571 450817 l 7583 -3536" class="C1" /><path d="M 561849 447534 c -122 -262 -433 -375 -695 -253" class="C1" /><path d="M 564896 300627 c -31412 14647 -45002 51986 -30354 83397" class="C1" /><path d="M 552694 422952 l -18152 -38928" class="C1" /><path d="M 552694 422952 c 7034 15084 19772 26757 35412 32449 c 15640 5692 32901 4939 47985 -2095" class="C1" /><path d="M 682514 431659 c 15084 -7034 26757 -19772 32449 -35412 c 5692 -15640 4939 -32901 -2095 -47985" class="C1" /><path d="M 706429 334454 l 6439 13808" class="C1" /><path d="M 706429 334454 l -11714 -25120" class="C1" /><path d="M 694716 309334 c -14647 -31412 -51986 -45002 -83397 -30354" class="C1" /><path d="M 591412 288263 l 19906 -9283" class="C1" /><path d="M 590717 288010 c 122 262 433 375 695 253" class="C1" /><path d="M 588890 284091 l 1827 3919" class="C1" /><path d="M 588890 284091 l -4553 -9764" class="C1" /><path d="M 584337 274327 c -59 -126 -165 -223 -295 -270 c -130 -47 -274 -41 -400 17" class="C1" /><path d="M 584337 274327 c -59 -126 -165 -223 -295 -270 c -130 -47 -274 -41 -400 17" class="C1" /><path d="M 576058 277611 l 7583 -3536" class="C1" /><path d="M 576058 277611 c -126 59 -223 165 -270 295 c -47 130 -41 274 17 400" class="C1" /><path d="M 580358 288069 l -4553 -9764" class="C1" /><path d="M 576058 277611 c -126 59 -223 165 -270 295 c -47 130 -41 274 17 400" class="C1" /><path d="M 580358 288069 l 1827 3919" class="C1" /><path d="M 710737 441579 c 15870 -7400 27926 -21094 33256 -37773 c 5330 -16679 3449 -34827 -5188 -50058" class="C1" /><path d="M 781241 261225 c -19782 3905 -36483 17077 -44889 35405 c -8406 18328 -7494 39578 2452 57118" class="C1" /><path d="M 542974 451780 c 15008 30764 51901 43827 82923 29361" class="C1" /><path d="M 710737 441579 l -84839 39561" class="C1" /><path d="M 682514 431659 l -46422 21647" class="C1" /><path d="M 564896 300627 l 17036 -7944" class="C1" /><path d="M 581933 292683 c 126 -59 223 -165 270 -295 c 47 -130 41 -274 -17 -400" class="C1" /><path d="M 981106 86294 l 0 50208" class="C1" /><path d="M 981629 85771 c -289 0 -523 234 -523 523" class="C1" /><path d="M 406810 298612 l -395763 0" class="C1" /><path d="M 11048 356138 l 296400 0" class="C1" /></g></svg>