<?xml version='1.0' encoding='utf-8'?>
<svg xmlns="http://www.w3.org/2000/svg" width="185.8mm" height="195mm" viewBox="0 0 952821 1000000"><defs><style>.C1 {stroke: #000000; stroke-width: 1282; stroke-opacity: 1.000; fill: none; fill-opacity: 1.000;}</style></defs><rect fill="#ffffff" x="0" y="0" width="952821" height="1000000" fill-opacity="1.0" /><g stroke-linecap="round" stroke-linejoin="round" fill-rule="evenodd"><path d="M 102839 948701 l 747170 0 c 13666 0 26773 -5429 36436 -15092 c 9664 -9664 15092 -22770 15092 -36436 l -28 -794343 c 0 -13666 -5429 -26773 -15092 -36436 c -9664 -9664 -22770 -15092 -36436 -15092 l -747170 0 c -13666 0 -26773 5429 -36436 15092 c -9664 9664 -15092 22770 -15092 36436 l 28 794343 c -0 13666 5429 26773 15092 36436 c 9664 9664 22770 15092 36436 15092" class="C1" /><path d="M 132908 144543 c 0 8496 -6888 15384 -15384 15384 c -8496 0 -15384 -6888 -15384 -15384 c 0 -8496 6888 -15384 15384 -15384 c 8496 0 15384 6888 15384 15384" class="C1" /><path d="M 850833 144543 c 0 8496 -6888 15384 -15384 15384 c -8496 0 -15384 -6888 -15384 -15384 c 0 -8496 6888 -15384 15384 -15384 c 8496 0 15384 6888 15384 15384" class="C1" /><path d="M 850771 862521 c 0 8496 -6888 15384 -15384 15384 c -8496 0 -15384 -6888 -15384 -15384 c 0 -8496 6888 -15384 15384 -15384 c 8496 0 15384 6888 15384 15384" class="C1" /><path d="M 132846 862521 c 0 8496 -6888 15384 -15384 15384 c -8496 0 -15384 -6888 -15384 -15384 c 0 -8496 6888 -15384 15384 -15384 c 8496 0 15384 6888 15384 15384" class="C1" /><path d="M 312301 741168 c 0 8496 -6888 15384 -15384 15384 c -8496 0 -15384 -6888 -15384 -15384 c 0 -8496 6888 -15384 15384 -15384 c 8496 0 15384 6888 15384 15384" class="C1" /><path d="M 671261 741168 c 0 8496 -6888 15384 -15384 15384 c -8496 0 -15384 -6888 -15384 -15384 c 0 -8496 6888 -15384 15384 -15384 c 8496 0 15384 6888 15384 15384" class="C1" /><path d="M 671261 279647 c 0 8496 -6888 15384 -15384 15384 c -8496 0 -15384 -6888 -15384 -15384 c 0 -8496 6888 -15384 15384 -15384 c 8496 0 15384 6888 15384 15384" class="C1" /><path d="M 312301 279647 c 0 8496 -6888 15384 -15384 15384 c -8496 0 -15384 -6888 -15384 -15384 c 0 -8496 6888 -15384 15384 -15384 c 8496 0 15384 6888 15384 15384" class="C1" /></g></svg>