<?xml version='1.0' encoding='utf-8'?>
<svg xmlns="http://www.w3.org/2000/svg" width="48mm" height="70mm" viewBox="0 0 685714 1000000"><defs><style>.C1 {stroke: #000000; stroke-width: 2857; stroke-opacity: 1.000; fill: none; fill-opacity: 1.000;}</style></defs><rect fill="#ffffff" x="0" y="0" width="685714" height="1000000" fill-opacity="1.0" /><g stroke-linecap="round" stroke-linejoin="round" fill-rule="evenodd"><path d="M 414286 214286 l 105350 0 c 12773 0 23221 10451 23221 23221 l 0 596414 c 0 12770 -10451 23221 -23221 23221 l -69636 0 l 0 -357143 l -214286 0 l 0 357143 l -69636 0 c -12771 0 -23221 -10449 -23221 -23221 l 0 -596414 c 0 -12773 10449 -23221 23221 -23221 l 105350 0" class="C1" /><path d="M 342857 178571 c -19726 0 -35714 15991 -35714 35714 c 0 19723 15989 35714 35714 35714 c 19726 0 35714 -15991 35714 -35714 c 0 -19723 -15989 -35714 -35714 -35714" class="C1" /><path d="M 271429 214286 c 0 -39444 31977 -71429 71429 -71429 c 39451 0 71429 31984 71429 71429" class="C1" /></g></svg>